G04 #@! TF.GenerationSoftware,KiCad,Pcbnew,(5.1.2)-1*
G04 #@! TF.CreationDate,2020-05-23T15:23:26+09:00*
G04 #@! TF.ProjectId,cp,63702e6b-6963-4616-945f-706362585858,v1.1*
G04 #@! TF.SameCoordinates,Original*
G04 #@! TF.FileFunction,Soldermask,Bot*
G04 #@! TF.FilePolarity,Negative*
%FSLAX46Y46*%
G04 Gerber Fmt 4.6, Leading zero omitted, Abs format (unit mm)*
G04 Created by KiCad (PCBNEW (5.1.2)-1) date 2020-05-23 15:23:26*
%MOMM*%
%LPD*%
G04 APERTURE LIST*
%ADD10C,0.100000*%
G04 APERTURE END LIST*
D10*
G36*
X123701248Y-147879976D02*
G01*
X123761924Y-147885952D01*
X123917626Y-147933184D01*
X123917628Y-147933185D01*
X124061121Y-148009883D01*
X124186896Y-148113104D01*
X124290117Y-148238879D01*
X124366815Y-148382372D01*
X124366816Y-148382374D01*
X124414048Y-148538076D01*
X124429996Y-148700000D01*
X124414048Y-148861924D01*
X124366816Y-149017626D01*
X124366815Y-149017628D01*
X124290117Y-149161121D01*
X124186896Y-149286896D01*
X124061121Y-149390117D01*
X123917628Y-149466815D01*
X123917626Y-149466816D01*
X123761924Y-149514048D01*
X123701248Y-149520024D01*
X123640574Y-149526000D01*
X123559426Y-149526000D01*
X123498752Y-149520024D01*
X123438076Y-149514048D01*
X123282374Y-149466816D01*
X123282372Y-149466815D01*
X123138879Y-149390117D01*
X123013104Y-149286896D01*
X122909883Y-149161121D01*
X122833185Y-149017628D01*
X122833184Y-149017626D01*
X122785952Y-148861924D01*
X122770004Y-148700000D01*
X122785952Y-148538076D01*
X122833184Y-148382374D01*
X122833185Y-148382372D01*
X122909883Y-148238879D01*
X123013104Y-148113104D01*
X123138879Y-148009883D01*
X123282372Y-147933185D01*
X123282374Y-147933184D01*
X123438076Y-147885952D01*
X123498752Y-147879976D01*
X123559426Y-147874000D01*
X123640574Y-147874000D01*
X123701248Y-147879976D01*
X123701248Y-147879976D01*
G37*
G36*
X116701248Y-147879976D02*
G01*
X116761924Y-147885952D01*
X116917626Y-147933184D01*
X116917628Y-147933185D01*
X117061121Y-148009883D01*
X117186896Y-148113104D01*
X117290117Y-148238879D01*
X117366815Y-148382372D01*
X117366816Y-148382374D01*
X117414048Y-148538076D01*
X117429996Y-148700000D01*
X117414048Y-148861924D01*
X117366816Y-149017626D01*
X117366815Y-149017628D01*
X117290117Y-149161121D01*
X117186896Y-149286896D01*
X117061121Y-149390117D01*
X116917628Y-149466815D01*
X116917626Y-149466816D01*
X116761924Y-149514048D01*
X116701248Y-149520024D01*
X116640574Y-149526000D01*
X116559426Y-149526000D01*
X116498752Y-149520024D01*
X116438076Y-149514048D01*
X116282374Y-149466816D01*
X116282372Y-149466815D01*
X116138879Y-149390117D01*
X116013104Y-149286896D01*
X115909883Y-149161121D01*
X115833185Y-149017628D01*
X115833184Y-149017626D01*
X115785952Y-148861924D01*
X115770004Y-148700000D01*
X115785952Y-148538076D01*
X115833184Y-148382374D01*
X115833185Y-148382372D01*
X115909883Y-148238879D01*
X116013104Y-148113104D01*
X116138879Y-148009883D01*
X116282372Y-147933185D01*
X116282374Y-147933184D01*
X116438076Y-147885952D01*
X116498752Y-147879976D01*
X116559426Y-147874000D01*
X116640574Y-147874000D01*
X116701248Y-147879976D01*
X116701248Y-147879976D01*
G37*
G36*
X122732517Y-145333781D02*
G01*
X122859946Y-145372436D01*
X122977383Y-145435208D01*
X123080317Y-145519683D01*
X123164792Y-145622617D01*
X123227564Y-145740054D01*
X123266219Y-145867483D01*
X123279270Y-146000000D01*
X123266219Y-146132517D01*
X123227564Y-146259946D01*
X123164792Y-146377383D01*
X123080317Y-146480317D01*
X122977383Y-146564792D01*
X122859946Y-146627564D01*
X122732517Y-146666219D01*
X122633205Y-146676000D01*
X122566795Y-146676000D01*
X122467483Y-146666219D01*
X122340054Y-146627564D01*
X122222617Y-146564792D01*
X122119683Y-146480317D01*
X122035208Y-146377383D01*
X121972436Y-146259946D01*
X121933781Y-146132517D01*
X121920730Y-146000000D01*
X121933781Y-145867483D01*
X121972436Y-145740054D01*
X122035208Y-145622617D01*
X122119683Y-145519683D01*
X122222617Y-145435208D01*
X122340054Y-145372436D01*
X122467483Y-145333781D01*
X122566795Y-145324000D01*
X122633205Y-145324000D01*
X122732517Y-145333781D01*
X122732517Y-145333781D01*
G37*
G36*
X117732517Y-145333781D02*
G01*
X117859946Y-145372436D01*
X117977383Y-145435208D01*
X118080317Y-145519683D01*
X118164792Y-145622617D01*
X118227564Y-145740054D01*
X118266219Y-145867483D01*
X118279270Y-146000000D01*
X118266219Y-146132517D01*
X118227564Y-146259946D01*
X118164792Y-146377383D01*
X118080317Y-146480317D01*
X117977383Y-146564792D01*
X117859946Y-146627564D01*
X117732517Y-146666219D01*
X117633205Y-146676000D01*
X117566795Y-146676000D01*
X117467483Y-146666219D01*
X117340054Y-146627564D01*
X117222617Y-146564792D01*
X117119683Y-146480317D01*
X117035208Y-146377383D01*
X116972436Y-146259946D01*
X116933781Y-146132517D01*
X116920730Y-146000000D01*
X116933781Y-145867483D01*
X116972436Y-145740054D01*
X117035208Y-145622617D01*
X117119683Y-145519683D01*
X117222617Y-145435208D01*
X117340054Y-145372436D01*
X117467483Y-145333781D01*
X117566795Y-145324000D01*
X117633205Y-145324000D01*
X117732517Y-145333781D01*
X117732517Y-145333781D01*
G37*
G36*
X126750442Y-137615518D02*
G01*
X126816627Y-137622037D01*
X126986466Y-137673557D01*
X127142991Y-137757222D01*
X127178729Y-137786552D01*
X127280186Y-137869814D01*
X127363448Y-137971271D01*
X127392778Y-138007009D01*
X127476443Y-138163534D01*
X127527963Y-138333373D01*
X127545359Y-138510000D01*
X127527963Y-138686627D01*
X127476443Y-138856466D01*
X127392778Y-139012991D01*
X127363448Y-139048729D01*
X127280186Y-139150186D01*
X127178729Y-139233448D01*
X127142991Y-139262778D01*
X126986466Y-139346443D01*
X126816627Y-139397963D01*
X126750442Y-139404482D01*
X126684260Y-139411000D01*
X126595740Y-139411000D01*
X126529558Y-139404482D01*
X126463373Y-139397963D01*
X126293534Y-139346443D01*
X126137009Y-139262778D01*
X126101271Y-139233448D01*
X125999814Y-139150186D01*
X125916552Y-139048729D01*
X125887222Y-139012991D01*
X125803557Y-138856466D01*
X125752037Y-138686627D01*
X125734641Y-138510000D01*
X125752037Y-138333373D01*
X125803557Y-138163534D01*
X125887222Y-138007009D01*
X125916552Y-137971271D01*
X125999814Y-137869814D01*
X126101271Y-137786552D01*
X126137009Y-137757222D01*
X126293534Y-137673557D01*
X126463373Y-137622037D01*
X126529558Y-137615518D01*
X126595740Y-137609000D01*
X126684260Y-137609000D01*
X126750442Y-137615518D01*
X126750442Y-137615518D01*
G37*
G36*
X124210442Y-137615518D02*
G01*
X124276627Y-137622037D01*
X124446466Y-137673557D01*
X124602991Y-137757222D01*
X124638729Y-137786552D01*
X124740186Y-137869814D01*
X124823448Y-137971271D01*
X124852778Y-138007009D01*
X124936443Y-138163534D01*
X124987963Y-138333373D01*
X125005359Y-138510000D01*
X124987963Y-138686627D01*
X124936443Y-138856466D01*
X124852778Y-139012991D01*
X124823448Y-139048729D01*
X124740186Y-139150186D01*
X124638729Y-139233448D01*
X124602991Y-139262778D01*
X124446466Y-139346443D01*
X124276627Y-139397963D01*
X124210442Y-139404482D01*
X124144260Y-139411000D01*
X124055740Y-139411000D01*
X123989558Y-139404482D01*
X123923373Y-139397963D01*
X123753534Y-139346443D01*
X123597009Y-139262778D01*
X123561271Y-139233448D01*
X123459814Y-139150186D01*
X123376552Y-139048729D01*
X123347222Y-139012991D01*
X123263557Y-138856466D01*
X123212037Y-138686627D01*
X123194641Y-138510000D01*
X123212037Y-138333373D01*
X123263557Y-138163534D01*
X123347222Y-138007009D01*
X123376552Y-137971271D01*
X123459814Y-137869814D01*
X123561271Y-137786552D01*
X123597009Y-137757222D01*
X123753534Y-137673557D01*
X123923373Y-137622037D01*
X123989558Y-137615518D01*
X124055740Y-137609000D01*
X124144260Y-137609000D01*
X124210442Y-137615518D01*
X124210442Y-137615518D01*
G37*
G36*
X126750443Y-135075519D02*
G01*
X126816627Y-135082037D01*
X126986466Y-135133557D01*
X127142991Y-135217222D01*
X127178729Y-135246552D01*
X127280186Y-135329814D01*
X127363448Y-135431271D01*
X127392778Y-135467009D01*
X127476443Y-135623534D01*
X127527963Y-135793373D01*
X127545359Y-135970000D01*
X127527963Y-136146627D01*
X127476443Y-136316466D01*
X127392778Y-136472991D01*
X127363448Y-136508729D01*
X127280186Y-136610186D01*
X127178729Y-136693448D01*
X127142991Y-136722778D01*
X126986466Y-136806443D01*
X126816627Y-136857963D01*
X126750442Y-136864482D01*
X126684260Y-136871000D01*
X126595740Y-136871000D01*
X126529558Y-136864482D01*
X126463373Y-136857963D01*
X126293534Y-136806443D01*
X126137009Y-136722778D01*
X126101271Y-136693448D01*
X125999814Y-136610186D01*
X125916552Y-136508729D01*
X125887222Y-136472991D01*
X125803557Y-136316466D01*
X125752037Y-136146627D01*
X125734641Y-135970000D01*
X125752037Y-135793373D01*
X125803557Y-135623534D01*
X125887222Y-135467009D01*
X125916552Y-135431271D01*
X125999814Y-135329814D01*
X126101271Y-135246552D01*
X126137009Y-135217222D01*
X126293534Y-135133557D01*
X126463373Y-135082037D01*
X126529557Y-135075519D01*
X126595740Y-135069000D01*
X126684260Y-135069000D01*
X126750443Y-135075519D01*
X126750443Y-135075519D01*
G37*
G36*
X124210443Y-135075519D02*
G01*
X124276627Y-135082037D01*
X124446466Y-135133557D01*
X124602991Y-135217222D01*
X124638729Y-135246552D01*
X124740186Y-135329814D01*
X124823448Y-135431271D01*
X124852778Y-135467009D01*
X124936443Y-135623534D01*
X124987963Y-135793373D01*
X125005359Y-135970000D01*
X124987963Y-136146627D01*
X124936443Y-136316466D01*
X124852778Y-136472991D01*
X124823448Y-136508729D01*
X124740186Y-136610186D01*
X124638729Y-136693448D01*
X124602991Y-136722778D01*
X124446466Y-136806443D01*
X124276627Y-136857963D01*
X124210442Y-136864482D01*
X124144260Y-136871000D01*
X124055740Y-136871000D01*
X123989558Y-136864482D01*
X123923373Y-136857963D01*
X123753534Y-136806443D01*
X123597009Y-136722778D01*
X123561271Y-136693448D01*
X123459814Y-136610186D01*
X123376552Y-136508729D01*
X123347222Y-136472991D01*
X123263557Y-136316466D01*
X123212037Y-136146627D01*
X123194641Y-135970000D01*
X123212037Y-135793373D01*
X123263557Y-135623534D01*
X123347222Y-135467009D01*
X123376552Y-135431271D01*
X123459814Y-135329814D01*
X123561271Y-135246552D01*
X123597009Y-135217222D01*
X123753534Y-135133557D01*
X123923373Y-135082037D01*
X123989557Y-135075519D01*
X124055740Y-135069000D01*
X124144260Y-135069000D01*
X124210443Y-135075519D01*
X124210443Y-135075519D01*
G37*
G36*
X124210442Y-132535518D02*
G01*
X124276627Y-132542037D01*
X124446466Y-132593557D01*
X124602991Y-132677222D01*
X124638729Y-132706552D01*
X124740186Y-132789814D01*
X124823448Y-132891271D01*
X124852778Y-132927009D01*
X124936443Y-133083534D01*
X124987963Y-133253373D01*
X125005359Y-133430000D01*
X124987963Y-133606627D01*
X124936443Y-133776466D01*
X124852778Y-133932991D01*
X124823448Y-133968729D01*
X124740186Y-134070186D01*
X124638729Y-134153448D01*
X124602991Y-134182778D01*
X124446466Y-134266443D01*
X124276627Y-134317963D01*
X124210443Y-134324481D01*
X124144260Y-134331000D01*
X124055740Y-134331000D01*
X123989557Y-134324481D01*
X123923373Y-134317963D01*
X123753534Y-134266443D01*
X123597009Y-134182778D01*
X123561271Y-134153448D01*
X123459814Y-134070186D01*
X123376552Y-133968729D01*
X123347222Y-133932991D01*
X123263557Y-133776466D01*
X123212037Y-133606627D01*
X123194641Y-133430000D01*
X123212037Y-133253373D01*
X123263557Y-133083534D01*
X123347222Y-132927009D01*
X123376552Y-132891271D01*
X123459814Y-132789814D01*
X123561271Y-132706552D01*
X123597009Y-132677222D01*
X123753534Y-132593557D01*
X123923373Y-132542037D01*
X123989558Y-132535518D01*
X124055740Y-132529000D01*
X124144260Y-132529000D01*
X124210442Y-132535518D01*
X124210442Y-132535518D01*
G37*
G36*
X126750442Y-132535518D02*
G01*
X126816627Y-132542037D01*
X126986466Y-132593557D01*
X127142991Y-132677222D01*
X127178729Y-132706552D01*
X127280186Y-132789814D01*
X127363448Y-132891271D01*
X127392778Y-132927009D01*
X127476443Y-133083534D01*
X127527963Y-133253373D01*
X127545359Y-133430000D01*
X127527963Y-133606627D01*
X127476443Y-133776466D01*
X127392778Y-133932991D01*
X127363448Y-133968729D01*
X127280186Y-134070186D01*
X127178729Y-134153448D01*
X127142991Y-134182778D01*
X126986466Y-134266443D01*
X126816627Y-134317963D01*
X126750443Y-134324481D01*
X126684260Y-134331000D01*
X126595740Y-134331000D01*
X126529557Y-134324481D01*
X126463373Y-134317963D01*
X126293534Y-134266443D01*
X126137009Y-134182778D01*
X126101271Y-134153448D01*
X125999814Y-134070186D01*
X125916552Y-133968729D01*
X125887222Y-133932991D01*
X125803557Y-133776466D01*
X125752037Y-133606627D01*
X125734641Y-133430000D01*
X125752037Y-133253373D01*
X125803557Y-133083534D01*
X125887222Y-132927009D01*
X125916552Y-132891271D01*
X125999814Y-132789814D01*
X126101271Y-132706552D01*
X126137009Y-132677222D01*
X126293534Y-132593557D01*
X126463373Y-132542037D01*
X126529558Y-132535518D01*
X126595740Y-132529000D01*
X126684260Y-132529000D01*
X126750442Y-132535518D01*
X126750442Y-132535518D01*
G37*
G36*
X124210442Y-129995518D02*
G01*
X124276627Y-130002037D01*
X124446466Y-130053557D01*
X124602991Y-130137222D01*
X124638729Y-130166552D01*
X124740186Y-130249814D01*
X124823448Y-130351271D01*
X124852778Y-130387009D01*
X124936443Y-130543534D01*
X124987963Y-130713373D01*
X125005359Y-130890000D01*
X124987963Y-131066627D01*
X124936443Y-131236466D01*
X124852778Y-131392991D01*
X124823448Y-131428729D01*
X124740186Y-131530186D01*
X124638729Y-131613448D01*
X124602991Y-131642778D01*
X124446466Y-131726443D01*
X124276627Y-131777963D01*
X124210442Y-131784482D01*
X124144260Y-131791000D01*
X124055740Y-131791000D01*
X123989558Y-131784482D01*
X123923373Y-131777963D01*
X123753534Y-131726443D01*
X123597009Y-131642778D01*
X123561271Y-131613448D01*
X123459814Y-131530186D01*
X123376552Y-131428729D01*
X123347222Y-131392991D01*
X123263557Y-131236466D01*
X123212037Y-131066627D01*
X123194641Y-130890000D01*
X123212037Y-130713373D01*
X123263557Y-130543534D01*
X123347222Y-130387009D01*
X123376552Y-130351271D01*
X123459814Y-130249814D01*
X123561271Y-130166552D01*
X123597009Y-130137222D01*
X123753534Y-130053557D01*
X123923373Y-130002037D01*
X123989558Y-129995518D01*
X124055740Y-129989000D01*
X124144260Y-129989000D01*
X124210442Y-129995518D01*
X124210442Y-129995518D01*
G37*
G36*
X126750442Y-129995518D02*
G01*
X126816627Y-130002037D01*
X126986466Y-130053557D01*
X127142991Y-130137222D01*
X127178729Y-130166552D01*
X127280186Y-130249814D01*
X127363448Y-130351271D01*
X127392778Y-130387009D01*
X127476443Y-130543534D01*
X127527963Y-130713373D01*
X127545359Y-130890000D01*
X127527963Y-131066627D01*
X127476443Y-131236466D01*
X127392778Y-131392991D01*
X127363448Y-131428729D01*
X127280186Y-131530186D01*
X127178729Y-131613448D01*
X127142991Y-131642778D01*
X126986466Y-131726443D01*
X126816627Y-131777963D01*
X126750442Y-131784482D01*
X126684260Y-131791000D01*
X126595740Y-131791000D01*
X126529558Y-131784482D01*
X126463373Y-131777963D01*
X126293534Y-131726443D01*
X126137009Y-131642778D01*
X126101271Y-131613448D01*
X125999814Y-131530186D01*
X125916552Y-131428729D01*
X125887222Y-131392991D01*
X125803557Y-131236466D01*
X125752037Y-131066627D01*
X125734641Y-130890000D01*
X125752037Y-130713373D01*
X125803557Y-130543534D01*
X125887222Y-130387009D01*
X125916552Y-130351271D01*
X125999814Y-130249814D01*
X126101271Y-130166552D01*
X126137009Y-130137222D01*
X126293534Y-130053557D01*
X126463373Y-130002037D01*
X126529558Y-129995518D01*
X126595740Y-129989000D01*
X126684260Y-129989000D01*
X126750442Y-129995518D01*
X126750442Y-129995518D01*
G37*
G36*
X126750443Y-127455519D02*
G01*
X126816627Y-127462037D01*
X126986466Y-127513557D01*
X127142991Y-127597222D01*
X127178729Y-127626552D01*
X127280186Y-127709814D01*
X127363448Y-127811271D01*
X127392778Y-127847009D01*
X127476443Y-128003534D01*
X127527963Y-128173373D01*
X127545359Y-128350000D01*
X127527963Y-128526627D01*
X127476443Y-128696466D01*
X127392778Y-128852991D01*
X127363448Y-128888729D01*
X127280186Y-128990186D01*
X127178729Y-129073448D01*
X127142991Y-129102778D01*
X126986466Y-129186443D01*
X126816627Y-129237963D01*
X126750443Y-129244481D01*
X126684260Y-129251000D01*
X126595740Y-129251000D01*
X126529557Y-129244481D01*
X126463373Y-129237963D01*
X126293534Y-129186443D01*
X126137009Y-129102778D01*
X126101271Y-129073448D01*
X125999814Y-128990186D01*
X125916552Y-128888729D01*
X125887222Y-128852991D01*
X125803557Y-128696466D01*
X125752037Y-128526627D01*
X125734641Y-128350000D01*
X125752037Y-128173373D01*
X125803557Y-128003534D01*
X125887222Y-127847009D01*
X125916552Y-127811271D01*
X125999814Y-127709814D01*
X126101271Y-127626552D01*
X126137009Y-127597222D01*
X126293534Y-127513557D01*
X126463373Y-127462037D01*
X126529557Y-127455519D01*
X126595740Y-127449000D01*
X126684260Y-127449000D01*
X126750443Y-127455519D01*
X126750443Y-127455519D01*
G37*
G36*
X125001000Y-129251000D02*
G01*
X123199000Y-129251000D01*
X123199000Y-127449000D01*
X125001000Y-127449000D01*
X125001000Y-129251000D01*
X125001000Y-129251000D01*
G37*
G36*
X127591000Y-123031000D02*
G01*
X125789000Y-123031000D01*
X125789000Y-121229000D01*
X127591000Y-121229000D01*
X127591000Y-123031000D01*
X127591000Y-123031000D01*
G37*
G36*
X114100442Y-121235518D02*
G01*
X114166627Y-121242037D01*
X114336466Y-121293557D01*
X114492991Y-121377222D01*
X114528729Y-121406552D01*
X114630186Y-121489814D01*
X114713448Y-121591271D01*
X114742778Y-121627009D01*
X114826443Y-121783534D01*
X114877963Y-121953373D01*
X114895359Y-122130000D01*
X114877963Y-122306627D01*
X114826443Y-122476466D01*
X114742778Y-122632991D01*
X114713448Y-122668729D01*
X114630186Y-122770186D01*
X114528729Y-122853448D01*
X114492991Y-122882778D01*
X114336466Y-122966443D01*
X114166627Y-123017963D01*
X114100442Y-123024482D01*
X114034260Y-123031000D01*
X113945740Y-123031000D01*
X113879558Y-123024482D01*
X113813373Y-123017963D01*
X113643534Y-122966443D01*
X113487009Y-122882778D01*
X113451271Y-122853448D01*
X113349814Y-122770186D01*
X113266552Y-122668729D01*
X113237222Y-122632991D01*
X113153557Y-122476466D01*
X113102037Y-122306627D01*
X113084641Y-122130000D01*
X113102037Y-121953373D01*
X113153557Y-121783534D01*
X113237222Y-121627009D01*
X113266552Y-121591271D01*
X113349814Y-121489814D01*
X113451271Y-121406552D01*
X113487009Y-121377222D01*
X113643534Y-121293557D01*
X113813373Y-121242037D01*
X113879558Y-121235518D01*
X113945740Y-121229000D01*
X114034260Y-121229000D01*
X114100442Y-121235518D01*
X114100442Y-121235518D01*
G37*
G36*
X124260442Y-121235518D02*
G01*
X124326627Y-121242037D01*
X124496466Y-121293557D01*
X124652991Y-121377222D01*
X124688729Y-121406552D01*
X124790186Y-121489814D01*
X124873448Y-121591271D01*
X124902778Y-121627009D01*
X124986443Y-121783534D01*
X125037963Y-121953373D01*
X125055359Y-122130000D01*
X125037963Y-122306627D01*
X124986443Y-122476466D01*
X124902778Y-122632991D01*
X124873448Y-122668729D01*
X124790186Y-122770186D01*
X124688729Y-122853448D01*
X124652991Y-122882778D01*
X124496466Y-122966443D01*
X124326627Y-123017963D01*
X124260442Y-123024482D01*
X124194260Y-123031000D01*
X124105740Y-123031000D01*
X124039558Y-123024482D01*
X123973373Y-123017963D01*
X123803534Y-122966443D01*
X123647009Y-122882778D01*
X123611271Y-122853448D01*
X123509814Y-122770186D01*
X123426552Y-122668729D01*
X123397222Y-122632991D01*
X123313557Y-122476466D01*
X123262037Y-122306627D01*
X123244641Y-122130000D01*
X123262037Y-121953373D01*
X123313557Y-121783534D01*
X123397222Y-121627009D01*
X123426552Y-121591271D01*
X123509814Y-121489814D01*
X123611271Y-121406552D01*
X123647009Y-121377222D01*
X123803534Y-121293557D01*
X123973373Y-121242037D01*
X124039558Y-121235518D01*
X124105740Y-121229000D01*
X124194260Y-121229000D01*
X124260442Y-121235518D01*
X124260442Y-121235518D01*
G37*
G36*
X121720442Y-121235518D02*
G01*
X121786627Y-121242037D01*
X121956466Y-121293557D01*
X122112991Y-121377222D01*
X122148729Y-121406552D01*
X122250186Y-121489814D01*
X122333448Y-121591271D01*
X122362778Y-121627009D01*
X122446443Y-121783534D01*
X122497963Y-121953373D01*
X122515359Y-122130000D01*
X122497963Y-122306627D01*
X122446443Y-122476466D01*
X122362778Y-122632991D01*
X122333448Y-122668729D01*
X122250186Y-122770186D01*
X122148729Y-122853448D01*
X122112991Y-122882778D01*
X121956466Y-122966443D01*
X121786627Y-123017963D01*
X121720442Y-123024482D01*
X121654260Y-123031000D01*
X121565740Y-123031000D01*
X121499558Y-123024482D01*
X121433373Y-123017963D01*
X121263534Y-122966443D01*
X121107009Y-122882778D01*
X121071271Y-122853448D01*
X120969814Y-122770186D01*
X120886552Y-122668729D01*
X120857222Y-122632991D01*
X120773557Y-122476466D01*
X120722037Y-122306627D01*
X120704641Y-122130000D01*
X120722037Y-121953373D01*
X120773557Y-121783534D01*
X120857222Y-121627009D01*
X120886552Y-121591271D01*
X120969814Y-121489814D01*
X121071271Y-121406552D01*
X121107009Y-121377222D01*
X121263534Y-121293557D01*
X121433373Y-121242037D01*
X121499558Y-121235518D01*
X121565740Y-121229000D01*
X121654260Y-121229000D01*
X121720442Y-121235518D01*
X121720442Y-121235518D01*
G37*
G36*
X119180442Y-121235518D02*
G01*
X119246627Y-121242037D01*
X119416466Y-121293557D01*
X119572991Y-121377222D01*
X119608729Y-121406552D01*
X119710186Y-121489814D01*
X119793448Y-121591271D01*
X119822778Y-121627009D01*
X119906443Y-121783534D01*
X119957963Y-121953373D01*
X119975359Y-122130000D01*
X119957963Y-122306627D01*
X119906443Y-122476466D01*
X119822778Y-122632991D01*
X119793448Y-122668729D01*
X119710186Y-122770186D01*
X119608729Y-122853448D01*
X119572991Y-122882778D01*
X119416466Y-122966443D01*
X119246627Y-123017963D01*
X119180442Y-123024482D01*
X119114260Y-123031000D01*
X119025740Y-123031000D01*
X118959558Y-123024482D01*
X118893373Y-123017963D01*
X118723534Y-122966443D01*
X118567009Y-122882778D01*
X118531271Y-122853448D01*
X118429814Y-122770186D01*
X118346552Y-122668729D01*
X118317222Y-122632991D01*
X118233557Y-122476466D01*
X118182037Y-122306627D01*
X118164641Y-122130000D01*
X118182037Y-121953373D01*
X118233557Y-121783534D01*
X118317222Y-121627009D01*
X118346552Y-121591271D01*
X118429814Y-121489814D01*
X118531271Y-121406552D01*
X118567009Y-121377222D01*
X118723534Y-121293557D01*
X118893373Y-121242037D01*
X118959558Y-121235518D01*
X119025740Y-121229000D01*
X119114260Y-121229000D01*
X119180442Y-121235518D01*
X119180442Y-121235518D01*
G37*
G36*
X116640442Y-121235518D02*
G01*
X116706627Y-121242037D01*
X116876466Y-121293557D01*
X117032991Y-121377222D01*
X117068729Y-121406552D01*
X117170186Y-121489814D01*
X117253448Y-121591271D01*
X117282778Y-121627009D01*
X117366443Y-121783534D01*
X117417963Y-121953373D01*
X117435359Y-122130000D01*
X117417963Y-122306627D01*
X117366443Y-122476466D01*
X117282778Y-122632991D01*
X117253448Y-122668729D01*
X117170186Y-122770186D01*
X117068729Y-122853448D01*
X117032991Y-122882778D01*
X116876466Y-122966443D01*
X116706627Y-123017963D01*
X116640442Y-123024482D01*
X116574260Y-123031000D01*
X116485740Y-123031000D01*
X116419558Y-123024482D01*
X116353373Y-123017963D01*
X116183534Y-122966443D01*
X116027009Y-122882778D01*
X115991271Y-122853448D01*
X115889814Y-122770186D01*
X115806552Y-122668729D01*
X115777222Y-122632991D01*
X115693557Y-122476466D01*
X115642037Y-122306627D01*
X115624641Y-122130000D01*
X115642037Y-121953373D01*
X115693557Y-121783534D01*
X115777222Y-121627009D01*
X115806552Y-121591271D01*
X115889814Y-121489814D01*
X115991271Y-121406552D01*
X116027009Y-121377222D01*
X116183534Y-121293557D01*
X116353373Y-121242037D01*
X116419558Y-121235518D01*
X116485740Y-121229000D01*
X116574260Y-121229000D01*
X116640442Y-121235518D01*
X116640442Y-121235518D01*
G37*
M02*
