G04 #@! TF.GenerationSoftware,KiCad,Pcbnew,(5.1.2)-1*
G04 #@! TF.CreationDate,2020-05-23T15:23:26+09:00*
G04 #@! TF.ProjectId,cp,63702e6b-6963-4616-945f-706362585858,v1.1*
G04 #@! TF.SameCoordinates,Original*
G04 #@! TF.FileFunction,Copper,L2,Bot*
G04 #@! TF.FilePolarity,Positive*
%FSLAX46Y46*%
G04 Gerber Fmt 4.6, Leading zero omitted, Abs format (unit mm)*
G04 Created by KiCad (PCBNEW (5.1.2)-1) date 2020-05-23 15:23:26*
%MOMM*%
%LPD*%
G04 APERTURE LIST*
%ADD10O,1.700000X1.700000*%
%ADD11R,1.700000X1.700000*%
%ADD12O,1.550000X1.550000*%
%ADD13O,1.250000X1.250000*%
%ADD14C,0.800000*%
%ADD15C,0.250000*%
%ADD16C,0.254000*%
G04 APERTURE END LIST*
D10*
X126640000Y-138510000D03*
X124100000Y-138510000D03*
X126640000Y-135970000D03*
X124100000Y-135970000D03*
X126640000Y-133430000D03*
X124100000Y-133430000D03*
X126640000Y-130890000D03*
X124100000Y-130890000D03*
X126640000Y-128350000D03*
D11*
X124100000Y-128350000D03*
D12*
X116600000Y-148700000D03*
X123600000Y-148700000D03*
D13*
X117600000Y-146000000D03*
X122600000Y-146000000D03*
D10*
X113990000Y-122130000D03*
X116530000Y-122130000D03*
X119070000Y-122130000D03*
X121610000Y-122130000D03*
X124150000Y-122130000D03*
D11*
X126690000Y-122130000D03*
D14*
X125900000Y-144000000D03*
X112300000Y-144400000D03*
X111600000Y-123900000D03*
X121726125Y-139212615D03*
X118941000Y-134942700D03*
X117942400Y-140523200D03*
X115368900Y-124225010D03*
X115002100Y-133645400D03*
X117250000Y-134937800D03*
X117403600Y-139627300D03*
X114976900Y-139333100D03*
X120047600Y-144517500D03*
X122389100Y-134911200D03*
X115022800Y-129535900D03*
X114055000Y-128374900D03*
X114611500Y-125525300D03*
X115708600Y-128616000D03*
D15*
X125900000Y-144565685D02*
X123265685Y-147200000D01*
X125900000Y-144000000D02*
X125900000Y-144565685D01*
X118857098Y-144400000D02*
X112300000Y-144400000D01*
X123265685Y-147200000D02*
X121657098Y-147200000D01*
X121657098Y-147200000D02*
X118857098Y-144400000D01*
X128450011Y-126430011D02*
X128450011Y-131586400D01*
X128308000Y-138892000D02*
X126849989Y-140350011D01*
X126849989Y-140350011D02*
X122863521Y-140350011D01*
X128308000Y-131728411D02*
X128308000Y-138892000D01*
X122863521Y-140350011D02*
X122126124Y-139612614D01*
X124150000Y-122130000D02*
X128450011Y-126430011D01*
X128450011Y-131586400D02*
X128308000Y-131728411D01*
X122126124Y-139612614D02*
X121726125Y-139212615D01*
X117942400Y-140523200D02*
X118941000Y-139524600D01*
X118941000Y-139524600D02*
X118941000Y-134942700D01*
X117705300Y-123130600D02*
X122924700Y-128350000D01*
X117705300Y-122130000D02*
X117705300Y-123130600D01*
X124100000Y-128350000D02*
X122924700Y-128350000D01*
X116530000Y-122130000D02*
X117705300Y-122130000D01*
X116610890Y-124225010D02*
X115934585Y-124225010D01*
X115934585Y-124225010D02*
X115368900Y-124225010D01*
X117705300Y-123130600D02*
X116610890Y-124225010D01*
X123510500Y-134640900D02*
X122515000Y-133645400D01*
X125370000Y-133918800D02*
X124647900Y-134640900D01*
X125370000Y-132830000D02*
X125370000Y-133918800D01*
X126000000Y-132200000D02*
X125370000Y-132830000D01*
X122515000Y-133645400D02*
X115002100Y-133645400D01*
X122785300Y-122130000D02*
X122785300Y-122572400D01*
X124647900Y-134640900D02*
X123510500Y-134640900D01*
X121610000Y-122130000D02*
X122785300Y-122130000D01*
X128000000Y-127787100D02*
X128000000Y-131400000D01*
X122785300Y-122572400D02*
X128000000Y-127787100D01*
X128000000Y-131400000D02*
X127200000Y-132200000D01*
X127200000Y-132200000D02*
X126000000Y-132200000D01*
X117250000Y-134937800D02*
X117250000Y-139473700D01*
X117250000Y-139473700D02*
X117403600Y-139627300D01*
X120047600Y-144517500D02*
X114976900Y-139446800D01*
X114976900Y-139446800D02*
X114976900Y-139333100D01*
X122389100Y-136089100D02*
X122389100Y-134911200D01*
X123500000Y-137200000D02*
X122389100Y-136089100D01*
X124900000Y-137200000D02*
X123500000Y-137200000D01*
X125464700Y-136635300D02*
X124900000Y-137200000D01*
X126640000Y-135970000D02*
X125464700Y-135970000D01*
X125464700Y-135970000D02*
X125464700Y-136635300D01*
X117586900Y-132100000D02*
X115022800Y-129535900D01*
X124800000Y-132100000D02*
X117586900Y-132100000D01*
X125464700Y-131435300D02*
X124800000Y-132100000D01*
X126640000Y-130890000D02*
X125464700Y-130890000D01*
X125464700Y-130890000D02*
X125464700Y-131435300D01*
X124100000Y-130890000D02*
X119260800Y-130890000D01*
X119260800Y-130890000D02*
X116251500Y-127880700D01*
X116251500Y-127880700D02*
X114549200Y-127880700D01*
X114549200Y-127880700D02*
X114055000Y-128374900D01*
X113990000Y-123305300D02*
X114611500Y-123926800D01*
X114611500Y-123926800D02*
X114611500Y-125525300D01*
X113990000Y-122130000D02*
X113990000Y-123305300D01*
X125464700Y-128350000D02*
X126640000Y-128350000D01*
X125464700Y-129435300D02*
X125464700Y-128350000D01*
X125300000Y-129600000D02*
X125464700Y-129435300D01*
X114611500Y-125525300D02*
X118686200Y-129600000D01*
X118686200Y-129600000D02*
X125300000Y-129600000D01*
X125464700Y-138510000D02*
X126640000Y-138510000D01*
X119972300Y-136372300D02*
X123500000Y-139900000D01*
X124600000Y-139900000D02*
X125464700Y-139035300D01*
X119219300Y-134181700D02*
X119972300Y-134934700D01*
X115685400Y-134181700D02*
X119219300Y-134181700D01*
X114845000Y-128616000D02*
X114254300Y-129206700D01*
X119972300Y-134934700D02*
X119972300Y-136372300D01*
X115708600Y-128616000D02*
X114845000Y-128616000D01*
X125464700Y-139035300D02*
X125464700Y-138510000D01*
X114254300Y-133930200D02*
X114694800Y-134370700D01*
X123500000Y-139900000D02*
X124600000Y-139900000D01*
X114694800Y-134370700D02*
X115496400Y-134370700D01*
X114254300Y-129206700D02*
X114254300Y-133930200D01*
X115496400Y-134370700D02*
X115685400Y-134181700D01*
D16*
G36*
X113698889Y-120666487D02*
G01*
X113418966Y-120751401D01*
X113160986Y-120889294D01*
X112934866Y-121074866D01*
X112749294Y-121300986D01*
X112611401Y-121558966D01*
X112526487Y-121838889D01*
X112497815Y-122130000D01*
X112526487Y-122421111D01*
X112611401Y-122701034D01*
X112749294Y-122959014D01*
X112934866Y-123185134D01*
X113160986Y-123370706D01*
X113236755Y-123411205D01*
X113237902Y-123422847D01*
X113240998Y-123454285D01*
X113284454Y-123597546D01*
X113355026Y-123729576D01*
X113413425Y-123800734D01*
X113450000Y-123845301D01*
X113478998Y-123869099D01*
X113851500Y-124241602D01*
X113851501Y-124821588D01*
X113807563Y-124865526D01*
X113694295Y-125035044D01*
X113616274Y-125223402D01*
X113576500Y-125423361D01*
X113576500Y-125627239D01*
X113616274Y-125827198D01*
X113694295Y-126015556D01*
X113807563Y-126185074D01*
X113951726Y-126329237D01*
X114121244Y-126442505D01*
X114309602Y-126520526D01*
X114509561Y-126560300D01*
X114571699Y-126560300D01*
X115132099Y-127120700D01*
X114586522Y-127120700D01*
X114549199Y-127117024D01*
X114511876Y-127120700D01*
X114511867Y-127120700D01*
X114400214Y-127131697D01*
X114256953Y-127175154D01*
X114124924Y-127245726D01*
X114010173Y-127339900D01*
X113953061Y-127339900D01*
X113753102Y-127379674D01*
X113564744Y-127457695D01*
X113395226Y-127570963D01*
X113251063Y-127715126D01*
X113137795Y-127884644D01*
X113059774Y-128073002D01*
X113020000Y-128272961D01*
X113020000Y-128476839D01*
X113059774Y-128676798D01*
X113137795Y-128865156D01*
X113251063Y-129034674D01*
X113395226Y-129178837D01*
X113494300Y-129245036D01*
X113494301Y-133892868D01*
X113490624Y-133930200D01*
X113494301Y-133967533D01*
X113505298Y-134079186D01*
X113513815Y-134107263D01*
X113548754Y-134222446D01*
X113619326Y-134354476D01*
X113676135Y-134423697D01*
X113714300Y-134470201D01*
X113743298Y-134493999D01*
X114130996Y-134881697D01*
X114154799Y-134910701D01*
X114227946Y-134970731D01*
X114270523Y-135005674D01*
X114334254Y-135039739D01*
X114402553Y-135076246D01*
X114545814Y-135119703D01*
X114657467Y-135130700D01*
X114657476Y-135130700D01*
X114694799Y-135134376D01*
X114732122Y-135130700D01*
X115459078Y-135130700D01*
X115496400Y-135134376D01*
X115533722Y-135130700D01*
X115533733Y-135130700D01*
X115645386Y-135119703D01*
X115788647Y-135076246D01*
X115920676Y-135005674D01*
X115998629Y-134941700D01*
X116215000Y-134941700D01*
X116215000Y-135039739D01*
X116254774Y-135239698D01*
X116332795Y-135428056D01*
X116446063Y-135597574D01*
X116490000Y-135641511D01*
X116490001Y-139131647D01*
X116486395Y-139137044D01*
X116408374Y-139325402D01*
X116368600Y-139525361D01*
X116368600Y-139729239D01*
X116377156Y-139772255D01*
X116011900Y-139406999D01*
X116011900Y-139231161D01*
X115972126Y-139031202D01*
X115894105Y-138842844D01*
X115780837Y-138673326D01*
X115636674Y-138529163D01*
X115467156Y-138415895D01*
X115278798Y-138337874D01*
X115078839Y-138298100D01*
X114874961Y-138298100D01*
X114675002Y-138337874D01*
X114486644Y-138415895D01*
X114317126Y-138529163D01*
X114172963Y-138673326D01*
X114059695Y-138842844D01*
X113981674Y-139031202D01*
X113941900Y-139231161D01*
X113941900Y-139435039D01*
X113981674Y-139634998D01*
X114059695Y-139823356D01*
X114172963Y-139992874D01*
X114317126Y-140137037D01*
X114486644Y-140250305D01*
X114675002Y-140328326D01*
X114810596Y-140355297D01*
X119012600Y-144557302D01*
X119012600Y-144619439D01*
X119052374Y-144819398D01*
X119130395Y-145007756D01*
X119243663Y-145177274D01*
X119387826Y-145321437D01*
X119557344Y-145434705D01*
X119745702Y-145512726D01*
X119945661Y-145552500D01*
X120149539Y-145552500D01*
X120349498Y-145512726D01*
X120537856Y-145434705D01*
X120707374Y-145321437D01*
X120851537Y-145177274D01*
X120964805Y-145007756D01*
X121042826Y-144819398D01*
X121082600Y-144619439D01*
X121082600Y-144415561D01*
X121042826Y-144215602D01*
X120964805Y-144027244D01*
X120851537Y-143857726D01*
X120707374Y-143713563D01*
X120537856Y-143600295D01*
X120349498Y-143522274D01*
X120149539Y-143482500D01*
X120087402Y-143482500D01*
X118143398Y-141538496D01*
X118244298Y-141518426D01*
X118432656Y-141440405D01*
X118602174Y-141327137D01*
X118746337Y-141182974D01*
X118859605Y-141013456D01*
X118937626Y-140825098D01*
X118977400Y-140625139D01*
X118977400Y-140563001D01*
X119452004Y-140088398D01*
X119481001Y-140064601D01*
X119575974Y-139948876D01*
X119646546Y-139816847D01*
X119690003Y-139673586D01*
X119701000Y-139561933D01*
X119701000Y-139561925D01*
X119704676Y-139524600D01*
X119701000Y-139487275D01*
X119701000Y-137175801D01*
X121000114Y-138474915D01*
X120922188Y-138552841D01*
X120808920Y-138722359D01*
X120730899Y-138910717D01*
X120691125Y-139110676D01*
X120691125Y-139314554D01*
X120730899Y-139514513D01*
X120808920Y-139702871D01*
X120922188Y-139872389D01*
X121066351Y-140016552D01*
X121235869Y-140129820D01*
X121424227Y-140207841D01*
X121624186Y-140247615D01*
X121686324Y-140247615D01*
X122299722Y-140861013D01*
X122323520Y-140890012D01*
X122439245Y-140984985D01*
X122571274Y-141055557D01*
X122714535Y-141099014D01*
X122826188Y-141110011D01*
X122826198Y-141110011D01*
X122863521Y-141113687D01*
X122900844Y-141110011D01*
X126812667Y-141110011D01*
X126849989Y-141113687D01*
X126887311Y-141110011D01*
X126887322Y-141110011D01*
X126998975Y-141099014D01*
X127142236Y-141055557D01*
X127274265Y-140984985D01*
X127389990Y-140890012D01*
X127413793Y-140861008D01*
X128819003Y-139455799D01*
X128848001Y-139432001D01*
X128883293Y-139388998D01*
X128942974Y-139316277D01*
X129013546Y-139184247D01*
X129026968Y-139140000D01*
X129057003Y-139040986D01*
X129068000Y-138929333D01*
X129068000Y-138929323D01*
X129071676Y-138892000D01*
X129068000Y-138854677D01*
X129068000Y-132031372D01*
X129084985Y-132010676D01*
X129155557Y-131878647D01*
X129199014Y-131735386D01*
X129210011Y-131623733D01*
X129210011Y-131623722D01*
X129213687Y-131586400D01*
X129210011Y-131549077D01*
X129210011Y-126467334D01*
X129213687Y-126430011D01*
X129210011Y-126392688D01*
X129210011Y-126392678D01*
X129199014Y-126281025D01*
X129155557Y-126137764D01*
X129084986Y-126005736D01*
X129084985Y-126005734D01*
X129013810Y-125919008D01*
X128990012Y-125890010D01*
X128961015Y-125866213D01*
X126709802Y-123615000D01*
X126817002Y-123615000D01*
X126817002Y-123456252D01*
X126975750Y-123615000D01*
X127540000Y-123618072D01*
X127664482Y-123605812D01*
X127784180Y-123569502D01*
X127894494Y-123510537D01*
X127991185Y-123431185D01*
X128070537Y-123334494D01*
X128129502Y-123224180D01*
X128165812Y-123104482D01*
X128178072Y-122980000D01*
X128175000Y-122415750D01*
X128016250Y-122257000D01*
X126817000Y-122257000D01*
X126817000Y-122277000D01*
X126563000Y-122277000D01*
X126563000Y-122257000D01*
X126543000Y-122257000D01*
X126543000Y-122003000D01*
X126563000Y-122003000D01*
X126563000Y-121983000D01*
X126817000Y-121983000D01*
X126817000Y-122003000D01*
X128016250Y-122003000D01*
X128175000Y-121844250D01*
X128178072Y-121280000D01*
X128165812Y-121155518D01*
X128129502Y-121035820D01*
X128070537Y-120925506D01*
X127991185Y-120828815D01*
X127894494Y-120749463D01*
X127784180Y-120690498D01*
X127683642Y-120660000D01*
X128967721Y-120660000D01*
X129065424Y-120669580D01*
X129128356Y-120688580D01*
X129186405Y-120719445D01*
X129237343Y-120760989D01*
X129279248Y-120811644D01*
X129310515Y-120869471D01*
X129329956Y-120932272D01*
X129340001Y-121027845D01*
X129340000Y-148967721D01*
X129330420Y-149065424D01*
X129311420Y-149128357D01*
X129280554Y-149186406D01*
X129239011Y-149237343D01*
X129188356Y-149279248D01*
X129130529Y-149310515D01*
X129067728Y-149329956D01*
X128972165Y-149340000D01*
X124856694Y-149340000D01*
X124908973Y-149242194D01*
X124989598Y-148976408D01*
X125016822Y-148700000D01*
X124989598Y-148423592D01*
X124908973Y-148157806D01*
X124778044Y-147912856D01*
X124601844Y-147698156D01*
X124387144Y-147521956D01*
X124142194Y-147391027D01*
X123876408Y-147310402D01*
X123669264Y-147290000D01*
X123530736Y-147290000D01*
X123323592Y-147310402D01*
X123057806Y-147391027D01*
X122812856Y-147521956D01*
X122598156Y-147698156D01*
X122421956Y-147912856D01*
X122291027Y-148157806D01*
X122210402Y-148423592D01*
X122183178Y-148700000D01*
X122210402Y-148976408D01*
X122291027Y-149242194D01*
X122343306Y-149340000D01*
X117856694Y-149340000D01*
X117908973Y-149242194D01*
X117989598Y-148976408D01*
X118016822Y-148700000D01*
X117989598Y-148423592D01*
X117908973Y-148157806D01*
X117778044Y-147912856D01*
X117601844Y-147698156D01*
X117387144Y-147521956D01*
X117142194Y-147391027D01*
X116876408Y-147310402D01*
X116669264Y-147290000D01*
X116530736Y-147290000D01*
X116323592Y-147310402D01*
X116057806Y-147391027D01*
X115812856Y-147521956D01*
X115598156Y-147698156D01*
X115421956Y-147912856D01*
X115291027Y-148157806D01*
X115210402Y-148423592D01*
X115183178Y-148700000D01*
X115210402Y-148976408D01*
X115291027Y-149242194D01*
X115343306Y-149340000D01*
X111032279Y-149340000D01*
X110934576Y-149330420D01*
X110871643Y-149311420D01*
X110813594Y-149280554D01*
X110762657Y-149239011D01*
X110720752Y-149188356D01*
X110689485Y-149130529D01*
X110670044Y-149067728D01*
X110660000Y-148972165D01*
X110660000Y-146000000D01*
X116333904Y-146000000D01*
X116358232Y-146247003D01*
X116430280Y-146484514D01*
X116547280Y-146703405D01*
X116704735Y-146895265D01*
X116896595Y-147052720D01*
X117115486Y-147169720D01*
X117352997Y-147241768D01*
X117538107Y-147260000D01*
X117661893Y-147260000D01*
X117847003Y-147241768D01*
X118084514Y-147169720D01*
X118303405Y-147052720D01*
X118495265Y-146895265D01*
X118652720Y-146703405D01*
X118769720Y-146484514D01*
X118841768Y-146247003D01*
X118866096Y-146000000D01*
X121333904Y-146000000D01*
X121358232Y-146247003D01*
X121430280Y-146484514D01*
X121547280Y-146703405D01*
X121704735Y-146895265D01*
X121896595Y-147052720D01*
X122115486Y-147169720D01*
X122352997Y-147241768D01*
X122538107Y-147260000D01*
X122661893Y-147260000D01*
X122847003Y-147241768D01*
X123084514Y-147169720D01*
X123303405Y-147052720D01*
X123495265Y-146895265D01*
X123652720Y-146703405D01*
X123769720Y-146484514D01*
X123841768Y-146247003D01*
X123866096Y-146000000D01*
X123841768Y-145752997D01*
X123769720Y-145515486D01*
X123652720Y-145296595D01*
X123495265Y-145104735D01*
X123303405Y-144947280D01*
X123084514Y-144830280D01*
X122847003Y-144758232D01*
X122661893Y-144740000D01*
X122538107Y-144740000D01*
X122352997Y-144758232D01*
X122115486Y-144830280D01*
X121896595Y-144947280D01*
X121704735Y-145104735D01*
X121547280Y-145296595D01*
X121430280Y-145515486D01*
X121358232Y-145752997D01*
X121333904Y-146000000D01*
X118866096Y-146000000D01*
X118841768Y-145752997D01*
X118769720Y-145515486D01*
X118652720Y-145296595D01*
X118495265Y-145104735D01*
X118303405Y-144947280D01*
X118084514Y-144830280D01*
X117847003Y-144758232D01*
X117661893Y-144740000D01*
X117538107Y-144740000D01*
X117352997Y-144758232D01*
X117115486Y-144830280D01*
X116896595Y-144947280D01*
X116704735Y-145104735D01*
X116547280Y-145296595D01*
X116430280Y-145515486D01*
X116358232Y-145752997D01*
X116333904Y-146000000D01*
X110660000Y-146000000D01*
X110660000Y-121032279D01*
X110669580Y-120934576D01*
X110688580Y-120871644D01*
X110719445Y-120813595D01*
X110760989Y-120762657D01*
X110811644Y-120720752D01*
X110869471Y-120689485D01*
X110932272Y-120670044D01*
X111027835Y-120660000D01*
X113764753Y-120660000D01*
X113698889Y-120666487D01*
X113698889Y-120666487D01*
G37*
X113698889Y-120666487D02*
X113418966Y-120751401D01*
X113160986Y-120889294D01*
X112934866Y-121074866D01*
X112749294Y-121300986D01*
X112611401Y-121558966D01*
X112526487Y-121838889D01*
X112497815Y-122130000D01*
X112526487Y-122421111D01*
X112611401Y-122701034D01*
X112749294Y-122959014D01*
X112934866Y-123185134D01*
X113160986Y-123370706D01*
X113236755Y-123411205D01*
X113237902Y-123422847D01*
X113240998Y-123454285D01*
X113284454Y-123597546D01*
X113355026Y-123729576D01*
X113413425Y-123800734D01*
X113450000Y-123845301D01*
X113478998Y-123869099D01*
X113851500Y-124241602D01*
X113851501Y-124821588D01*
X113807563Y-124865526D01*
X113694295Y-125035044D01*
X113616274Y-125223402D01*
X113576500Y-125423361D01*
X113576500Y-125627239D01*
X113616274Y-125827198D01*
X113694295Y-126015556D01*
X113807563Y-126185074D01*
X113951726Y-126329237D01*
X114121244Y-126442505D01*
X114309602Y-126520526D01*
X114509561Y-126560300D01*
X114571699Y-126560300D01*
X115132099Y-127120700D01*
X114586522Y-127120700D01*
X114549199Y-127117024D01*
X114511876Y-127120700D01*
X114511867Y-127120700D01*
X114400214Y-127131697D01*
X114256953Y-127175154D01*
X114124924Y-127245726D01*
X114010173Y-127339900D01*
X113953061Y-127339900D01*
X113753102Y-127379674D01*
X113564744Y-127457695D01*
X113395226Y-127570963D01*
X113251063Y-127715126D01*
X113137795Y-127884644D01*
X113059774Y-128073002D01*
X113020000Y-128272961D01*
X113020000Y-128476839D01*
X113059774Y-128676798D01*
X113137795Y-128865156D01*
X113251063Y-129034674D01*
X113395226Y-129178837D01*
X113494300Y-129245036D01*
X113494301Y-133892868D01*
X113490624Y-133930200D01*
X113494301Y-133967533D01*
X113505298Y-134079186D01*
X113513815Y-134107263D01*
X113548754Y-134222446D01*
X113619326Y-134354476D01*
X113676135Y-134423697D01*
X113714300Y-134470201D01*
X113743298Y-134493999D01*
X114130996Y-134881697D01*
X114154799Y-134910701D01*
X114227946Y-134970731D01*
X114270523Y-135005674D01*
X114334254Y-135039739D01*
X114402553Y-135076246D01*
X114545814Y-135119703D01*
X114657467Y-135130700D01*
X114657476Y-135130700D01*
X114694799Y-135134376D01*
X114732122Y-135130700D01*
X115459078Y-135130700D01*
X115496400Y-135134376D01*
X115533722Y-135130700D01*
X115533733Y-135130700D01*
X115645386Y-135119703D01*
X115788647Y-135076246D01*
X115920676Y-135005674D01*
X115998629Y-134941700D01*
X116215000Y-134941700D01*
X116215000Y-135039739D01*
X116254774Y-135239698D01*
X116332795Y-135428056D01*
X116446063Y-135597574D01*
X116490000Y-135641511D01*
X116490001Y-139131647D01*
X116486395Y-139137044D01*
X116408374Y-139325402D01*
X116368600Y-139525361D01*
X116368600Y-139729239D01*
X116377156Y-139772255D01*
X116011900Y-139406999D01*
X116011900Y-139231161D01*
X115972126Y-139031202D01*
X115894105Y-138842844D01*
X115780837Y-138673326D01*
X115636674Y-138529163D01*
X115467156Y-138415895D01*
X115278798Y-138337874D01*
X115078839Y-138298100D01*
X114874961Y-138298100D01*
X114675002Y-138337874D01*
X114486644Y-138415895D01*
X114317126Y-138529163D01*
X114172963Y-138673326D01*
X114059695Y-138842844D01*
X113981674Y-139031202D01*
X113941900Y-139231161D01*
X113941900Y-139435039D01*
X113981674Y-139634998D01*
X114059695Y-139823356D01*
X114172963Y-139992874D01*
X114317126Y-140137037D01*
X114486644Y-140250305D01*
X114675002Y-140328326D01*
X114810596Y-140355297D01*
X119012600Y-144557302D01*
X119012600Y-144619439D01*
X119052374Y-144819398D01*
X119130395Y-145007756D01*
X119243663Y-145177274D01*
X119387826Y-145321437D01*
X119557344Y-145434705D01*
X119745702Y-145512726D01*
X119945661Y-145552500D01*
X120149539Y-145552500D01*
X120349498Y-145512726D01*
X120537856Y-145434705D01*
X120707374Y-145321437D01*
X120851537Y-145177274D01*
X120964805Y-145007756D01*
X121042826Y-144819398D01*
X121082600Y-144619439D01*
X121082600Y-144415561D01*
X121042826Y-144215602D01*
X120964805Y-144027244D01*
X120851537Y-143857726D01*
X120707374Y-143713563D01*
X120537856Y-143600295D01*
X120349498Y-143522274D01*
X120149539Y-143482500D01*
X120087402Y-143482500D01*
X118143398Y-141538496D01*
X118244298Y-141518426D01*
X118432656Y-141440405D01*
X118602174Y-141327137D01*
X118746337Y-141182974D01*
X118859605Y-141013456D01*
X118937626Y-140825098D01*
X118977400Y-140625139D01*
X118977400Y-140563001D01*
X119452004Y-140088398D01*
X119481001Y-140064601D01*
X119575974Y-139948876D01*
X119646546Y-139816847D01*
X119690003Y-139673586D01*
X119701000Y-139561933D01*
X119701000Y-139561925D01*
X119704676Y-139524600D01*
X119701000Y-139487275D01*
X119701000Y-137175801D01*
X121000114Y-138474915D01*
X120922188Y-138552841D01*
X120808920Y-138722359D01*
X120730899Y-138910717D01*
X120691125Y-139110676D01*
X120691125Y-139314554D01*
X120730899Y-139514513D01*
X120808920Y-139702871D01*
X120922188Y-139872389D01*
X121066351Y-140016552D01*
X121235869Y-140129820D01*
X121424227Y-140207841D01*
X121624186Y-140247615D01*
X121686324Y-140247615D01*
X122299722Y-140861013D01*
X122323520Y-140890012D01*
X122439245Y-140984985D01*
X122571274Y-141055557D01*
X122714535Y-141099014D01*
X122826188Y-141110011D01*
X122826198Y-141110011D01*
X122863521Y-141113687D01*
X122900844Y-141110011D01*
X126812667Y-141110011D01*
X126849989Y-141113687D01*
X126887311Y-141110011D01*
X126887322Y-141110011D01*
X126998975Y-141099014D01*
X127142236Y-141055557D01*
X127274265Y-140984985D01*
X127389990Y-140890012D01*
X127413793Y-140861008D01*
X128819003Y-139455799D01*
X128848001Y-139432001D01*
X128883293Y-139388998D01*
X128942974Y-139316277D01*
X129013546Y-139184247D01*
X129026968Y-139140000D01*
X129057003Y-139040986D01*
X129068000Y-138929333D01*
X129068000Y-138929323D01*
X129071676Y-138892000D01*
X129068000Y-138854677D01*
X129068000Y-132031372D01*
X129084985Y-132010676D01*
X129155557Y-131878647D01*
X129199014Y-131735386D01*
X129210011Y-131623733D01*
X129210011Y-131623722D01*
X129213687Y-131586400D01*
X129210011Y-131549077D01*
X129210011Y-126467334D01*
X129213687Y-126430011D01*
X129210011Y-126392688D01*
X129210011Y-126392678D01*
X129199014Y-126281025D01*
X129155557Y-126137764D01*
X129084986Y-126005736D01*
X129084985Y-126005734D01*
X129013810Y-125919008D01*
X128990012Y-125890010D01*
X128961015Y-125866213D01*
X126709802Y-123615000D01*
X126817002Y-123615000D01*
X126817002Y-123456252D01*
X126975750Y-123615000D01*
X127540000Y-123618072D01*
X127664482Y-123605812D01*
X127784180Y-123569502D01*
X127894494Y-123510537D01*
X127991185Y-123431185D01*
X128070537Y-123334494D01*
X128129502Y-123224180D01*
X128165812Y-123104482D01*
X128178072Y-122980000D01*
X128175000Y-122415750D01*
X128016250Y-122257000D01*
X126817000Y-122257000D01*
X126817000Y-122277000D01*
X126563000Y-122277000D01*
X126563000Y-122257000D01*
X126543000Y-122257000D01*
X126543000Y-122003000D01*
X126563000Y-122003000D01*
X126563000Y-121983000D01*
X126817000Y-121983000D01*
X126817000Y-122003000D01*
X128016250Y-122003000D01*
X128175000Y-121844250D01*
X128178072Y-121280000D01*
X128165812Y-121155518D01*
X128129502Y-121035820D01*
X128070537Y-120925506D01*
X127991185Y-120828815D01*
X127894494Y-120749463D01*
X127784180Y-120690498D01*
X127683642Y-120660000D01*
X128967721Y-120660000D01*
X129065424Y-120669580D01*
X129128356Y-120688580D01*
X129186405Y-120719445D01*
X129237343Y-120760989D01*
X129279248Y-120811644D01*
X129310515Y-120869471D01*
X129329956Y-120932272D01*
X129340001Y-121027845D01*
X129340000Y-148967721D01*
X129330420Y-149065424D01*
X129311420Y-149128357D01*
X129280554Y-149186406D01*
X129239011Y-149237343D01*
X129188356Y-149279248D01*
X129130529Y-149310515D01*
X129067728Y-149329956D01*
X128972165Y-149340000D01*
X124856694Y-149340000D01*
X124908973Y-149242194D01*
X124989598Y-148976408D01*
X125016822Y-148700000D01*
X124989598Y-148423592D01*
X124908973Y-148157806D01*
X124778044Y-147912856D01*
X124601844Y-147698156D01*
X124387144Y-147521956D01*
X124142194Y-147391027D01*
X123876408Y-147310402D01*
X123669264Y-147290000D01*
X123530736Y-147290000D01*
X123323592Y-147310402D01*
X123057806Y-147391027D01*
X122812856Y-147521956D01*
X122598156Y-147698156D01*
X122421956Y-147912856D01*
X122291027Y-148157806D01*
X122210402Y-148423592D01*
X122183178Y-148700000D01*
X122210402Y-148976408D01*
X122291027Y-149242194D01*
X122343306Y-149340000D01*
X117856694Y-149340000D01*
X117908973Y-149242194D01*
X117989598Y-148976408D01*
X118016822Y-148700000D01*
X117989598Y-148423592D01*
X117908973Y-148157806D01*
X117778044Y-147912856D01*
X117601844Y-147698156D01*
X117387144Y-147521956D01*
X117142194Y-147391027D01*
X116876408Y-147310402D01*
X116669264Y-147290000D01*
X116530736Y-147290000D01*
X116323592Y-147310402D01*
X116057806Y-147391027D01*
X115812856Y-147521956D01*
X115598156Y-147698156D01*
X115421956Y-147912856D01*
X115291027Y-148157806D01*
X115210402Y-148423592D01*
X115183178Y-148700000D01*
X115210402Y-148976408D01*
X115291027Y-149242194D01*
X115343306Y-149340000D01*
X111032279Y-149340000D01*
X110934576Y-149330420D01*
X110871643Y-149311420D01*
X110813594Y-149280554D01*
X110762657Y-149239011D01*
X110720752Y-149188356D01*
X110689485Y-149130529D01*
X110670044Y-149067728D01*
X110660000Y-148972165D01*
X110660000Y-146000000D01*
X116333904Y-146000000D01*
X116358232Y-146247003D01*
X116430280Y-146484514D01*
X116547280Y-146703405D01*
X116704735Y-146895265D01*
X116896595Y-147052720D01*
X117115486Y-147169720D01*
X117352997Y-147241768D01*
X117538107Y-147260000D01*
X117661893Y-147260000D01*
X117847003Y-147241768D01*
X118084514Y-147169720D01*
X118303405Y-147052720D01*
X118495265Y-146895265D01*
X118652720Y-146703405D01*
X118769720Y-146484514D01*
X118841768Y-146247003D01*
X118866096Y-146000000D01*
X121333904Y-146000000D01*
X121358232Y-146247003D01*
X121430280Y-146484514D01*
X121547280Y-146703405D01*
X121704735Y-146895265D01*
X121896595Y-147052720D01*
X122115486Y-147169720D01*
X122352997Y-147241768D01*
X122538107Y-147260000D01*
X122661893Y-147260000D01*
X122847003Y-147241768D01*
X123084514Y-147169720D01*
X123303405Y-147052720D01*
X123495265Y-146895265D01*
X123652720Y-146703405D01*
X123769720Y-146484514D01*
X123841768Y-146247003D01*
X123866096Y-146000000D01*
X123841768Y-145752997D01*
X123769720Y-145515486D01*
X123652720Y-145296595D01*
X123495265Y-145104735D01*
X123303405Y-144947280D01*
X123084514Y-144830280D01*
X122847003Y-144758232D01*
X122661893Y-144740000D01*
X122538107Y-144740000D01*
X122352997Y-144758232D01*
X122115486Y-144830280D01*
X121896595Y-144947280D01*
X121704735Y-145104735D01*
X121547280Y-145296595D01*
X121430280Y-145515486D01*
X121358232Y-145752997D01*
X121333904Y-146000000D01*
X118866096Y-146000000D01*
X118841768Y-145752997D01*
X118769720Y-145515486D01*
X118652720Y-145296595D01*
X118495265Y-145104735D01*
X118303405Y-144947280D01*
X118084514Y-144830280D01*
X117847003Y-144758232D01*
X117661893Y-144740000D01*
X117538107Y-144740000D01*
X117352997Y-144758232D01*
X117115486Y-144830280D01*
X116896595Y-144947280D01*
X116704735Y-145104735D01*
X116547280Y-145296595D01*
X116430280Y-145515486D01*
X116358232Y-145752997D01*
X116333904Y-146000000D01*
X110660000Y-146000000D01*
X110660000Y-121032279D01*
X110669580Y-120934576D01*
X110688580Y-120871644D01*
X110719445Y-120813595D01*
X110760989Y-120762657D01*
X110811644Y-120720752D01*
X110869471Y-120689485D01*
X110932272Y-120670044D01*
X111027835Y-120660000D01*
X113764753Y-120660000D01*
X113698889Y-120666487D01*
M02*
