G04 #@! TF.GenerationSoftware,KiCad,Pcbnew,(5.1.2)-1*
G04 #@! TF.CreationDate,2020-05-23T15:23:26+09:00*
G04 #@! TF.ProjectId,cp,63702e6b-6963-4616-945f-706362585858,v1.1*
G04 #@! TF.SameCoordinates,Original*
G04 #@! TF.FileFunction,Legend,Top*
G04 #@! TF.FilePolarity,Positive*
%FSLAX46Y46*%
G04 Gerber Fmt 4.6, Leading zero omitted, Abs format (unit mm)*
G04 Created by KiCad (PCBNEW (5.1.2)-1) date 2020-05-23 15:23:26*
%MOMM*%
%LPD*%
G04 APERTURE LIST*
%ADD10C,0.120000*%
%ADD11C,0.150000*%
%ADD12C,0.300000*%
G04 APERTURE END LIST*
D10*
X114288095Y-123598095D02*
X114554761Y-123979047D01*
X114745238Y-123598095D02*
X114745238Y-124398095D01*
X114440476Y-124398095D01*
X114364285Y-124360000D01*
X114326190Y-124321904D01*
X114288095Y-124245714D01*
X114288095Y-124131428D01*
X114326190Y-124055238D01*
X114364285Y-124017142D01*
X114440476Y-123979047D01*
X114745238Y-123979047D01*
X113983333Y-123636190D02*
X113869047Y-123598095D01*
X113678571Y-123598095D01*
X113602380Y-123636190D01*
X113564285Y-123674285D01*
X113526190Y-123750476D01*
X113526190Y-123826666D01*
X113564285Y-123902857D01*
X113602380Y-123940952D01*
X113678571Y-123979047D01*
X113830952Y-124017142D01*
X113907142Y-124055238D01*
X113945238Y-124093333D01*
X113983333Y-124169523D01*
X113983333Y-124245714D01*
X113945238Y-124321904D01*
X113907142Y-124360000D01*
X113830952Y-124398095D01*
X113640476Y-124398095D01*
X113526190Y-124360000D01*
X113297619Y-124398095D02*
X112840476Y-124398095D01*
X113069047Y-123598095D02*
X113069047Y-124398095D01*
X116945238Y-123674285D02*
X116983333Y-123636190D01*
X117097619Y-123598095D01*
X117173809Y-123598095D01*
X117288095Y-123636190D01*
X117364285Y-123712380D01*
X117402380Y-123788571D01*
X117440476Y-123940952D01*
X117440476Y-124055238D01*
X117402380Y-124207619D01*
X117364285Y-124283809D01*
X117288095Y-124360000D01*
X117173809Y-124398095D01*
X117097619Y-124398095D01*
X116983333Y-124360000D01*
X116945238Y-124321904D01*
X116335714Y-124017142D02*
X116602380Y-124017142D01*
X116602380Y-123598095D02*
X116602380Y-124398095D01*
X116221428Y-124398095D01*
X115497619Y-124360000D02*
X115573809Y-124398095D01*
X115688095Y-124398095D01*
X115802380Y-124360000D01*
X115878571Y-124283809D01*
X115916666Y-124207619D01*
X115954761Y-124055238D01*
X115954761Y-123940952D01*
X115916666Y-123788571D01*
X115878571Y-123712380D01*
X115802380Y-123636190D01*
X115688095Y-123598095D01*
X115611904Y-123598095D01*
X115497619Y-123636190D01*
X115459523Y-123674285D01*
X115459523Y-123940952D01*
X115611904Y-123940952D01*
X127259523Y-124360000D02*
X127335714Y-124398095D01*
X127450000Y-124398095D01*
X127564285Y-124360000D01*
X127640476Y-124283809D01*
X127678571Y-124207619D01*
X127716666Y-124055238D01*
X127716666Y-123940952D01*
X127678571Y-123788571D01*
X127640476Y-123712380D01*
X127564285Y-123636190D01*
X127450000Y-123598095D01*
X127373809Y-123598095D01*
X127259523Y-123636190D01*
X127221428Y-123674285D01*
X127221428Y-123940952D01*
X127373809Y-123940952D01*
X126878571Y-123598095D02*
X126878571Y-124398095D01*
X126421428Y-123598095D01*
X126421428Y-124398095D01*
X126040476Y-123598095D02*
X126040476Y-124398095D01*
X125850000Y-124398095D01*
X125735714Y-124360000D01*
X125659523Y-124283809D01*
X125621428Y-124207619D01*
X125583333Y-124055238D01*
X125583333Y-123940952D01*
X125621428Y-123788571D01*
X125659523Y-123712380D01*
X125735714Y-123636190D01*
X125850000Y-123598095D01*
X126040476Y-123598095D01*
X124788095Y-124398095D02*
X124292857Y-124398095D01*
X124559523Y-124093333D01*
X124445238Y-124093333D01*
X124369047Y-124055238D01*
X124330952Y-124017142D01*
X124292857Y-123940952D01*
X124292857Y-123750476D01*
X124330952Y-123674285D01*
X124369047Y-123636190D01*
X124445238Y-123598095D01*
X124673809Y-123598095D01*
X124750000Y-123636190D01*
X124788095Y-123674285D01*
X123950000Y-123674285D02*
X123911904Y-123636190D01*
X123950000Y-123598095D01*
X123988095Y-123636190D01*
X123950000Y-123674285D01*
X123950000Y-123598095D01*
X123645238Y-124398095D02*
X123150000Y-124398095D01*
X123416666Y-124093333D01*
X123302380Y-124093333D01*
X123226190Y-124055238D01*
X123188095Y-124017142D01*
X123150000Y-123940952D01*
X123150000Y-123750476D01*
X123188095Y-123674285D01*
X123226190Y-123636190D01*
X123302380Y-123598095D01*
X123530952Y-123598095D01*
X123607142Y-123636190D01*
X123645238Y-123674285D01*
X119802380Y-123636190D02*
X119688095Y-123598095D01*
X119497619Y-123598095D01*
X119421428Y-123636190D01*
X119383333Y-123674285D01*
X119345238Y-123750476D01*
X119345238Y-123826666D01*
X119383333Y-123902857D01*
X119421428Y-123940952D01*
X119497619Y-123979047D01*
X119650000Y-124017142D01*
X119726190Y-124055238D01*
X119764285Y-124093333D01*
X119802380Y-124169523D01*
X119802380Y-124245714D01*
X119764285Y-124321904D01*
X119726190Y-124360000D01*
X119650000Y-124398095D01*
X119459523Y-124398095D01*
X119345238Y-124360000D01*
X118545238Y-123674285D02*
X118583333Y-123636190D01*
X118697619Y-123598095D01*
X118773809Y-123598095D01*
X118888095Y-123636190D01*
X118964285Y-123712380D01*
X119002380Y-123788571D01*
X119040476Y-123940952D01*
X119040476Y-124055238D01*
X119002380Y-124207619D01*
X118964285Y-124283809D01*
X118888095Y-124360000D01*
X118773809Y-124398095D01*
X118697619Y-124398095D01*
X118583333Y-124360000D01*
X118545238Y-124321904D01*
X117821428Y-123598095D02*
X118202380Y-123598095D01*
X118202380Y-124398095D01*
X122421428Y-123636190D02*
X122307142Y-123598095D01*
X122116666Y-123598095D01*
X122040476Y-123636190D01*
X122002380Y-123674285D01*
X121964285Y-123750476D01*
X121964285Y-123826666D01*
X122002380Y-123902857D01*
X122040476Y-123940952D01*
X122116666Y-123979047D01*
X122269047Y-124017142D01*
X122345238Y-124055238D01*
X122383333Y-124093333D01*
X122421428Y-124169523D01*
X122421428Y-124245714D01*
X122383333Y-124321904D01*
X122345238Y-124360000D01*
X122269047Y-124398095D01*
X122078571Y-124398095D01*
X121964285Y-124360000D01*
X121621428Y-123598095D02*
X121621428Y-124398095D01*
X121430952Y-124398095D01*
X121316666Y-124360000D01*
X121240476Y-124283809D01*
X121202380Y-124207619D01*
X121164285Y-124055238D01*
X121164285Y-123940952D01*
X121202380Y-123788571D01*
X121240476Y-123712380D01*
X121316666Y-123636190D01*
X121430952Y-123598095D01*
X121621428Y-123598095D01*
X120859523Y-123826666D02*
X120478571Y-123826666D01*
X120935714Y-123598095D02*
X120669047Y-124398095D01*
X120402380Y-123598095D01*
D11*
X112620238Y-131138095D02*
X112572619Y-131280952D01*
X112572619Y-131519047D01*
X112620238Y-131614285D01*
X112667857Y-131661904D01*
X112763095Y-131709523D01*
X112858333Y-131709523D01*
X112953571Y-131661904D01*
X113001190Y-131614285D01*
X113048809Y-131519047D01*
X113096428Y-131328571D01*
X113144047Y-131233333D01*
X113191666Y-131185714D01*
X113286904Y-131138095D01*
X113382142Y-131138095D01*
X113477380Y-131185714D01*
X113525000Y-131233333D01*
X113572619Y-131328571D01*
X113572619Y-131566666D01*
X113525000Y-131709523D01*
X112572619Y-132138095D02*
X113572619Y-132138095D01*
X112858333Y-132471428D01*
X113572619Y-132804761D01*
X112572619Y-132804761D01*
X113096428Y-133614285D02*
X113048809Y-133757142D01*
X113001190Y-133804761D01*
X112905952Y-133852380D01*
X112763095Y-133852380D01*
X112667857Y-133804761D01*
X112620238Y-133757142D01*
X112572619Y-133661904D01*
X112572619Y-133280952D01*
X113572619Y-133280952D01*
X113572619Y-133614285D01*
X113525000Y-133709523D01*
X113477380Y-133757142D01*
X113382142Y-133804761D01*
X113286904Y-133804761D01*
X113191666Y-133757142D01*
X113144047Y-133709523D01*
X113096428Y-133614285D01*
X113096428Y-133280952D01*
X113239285Y-134709523D02*
X112572619Y-134709523D01*
X113239285Y-134280952D02*
X112715476Y-134280952D01*
X112620238Y-134328571D01*
X112572619Y-134423809D01*
X112572619Y-134566666D01*
X112620238Y-134661904D01*
X112667857Y-134709523D01*
X112620238Y-135138095D02*
X112572619Y-135233333D01*
X112572619Y-135423809D01*
X112620238Y-135519047D01*
X112715476Y-135566666D01*
X112763095Y-135566666D01*
X112858333Y-135519047D01*
X112905952Y-135423809D01*
X112905952Y-135280952D01*
X112953571Y-135185714D01*
X113048809Y-135138095D01*
X113096428Y-135138095D01*
X113191666Y-135185714D01*
X113239285Y-135280952D01*
X113239285Y-135423809D01*
X113191666Y-135519047D01*
X113096428Y-137090476D02*
X113048809Y-137233333D01*
X113001190Y-137280952D01*
X112905952Y-137328571D01*
X112763095Y-137328571D01*
X112667857Y-137280952D01*
X112620238Y-137233333D01*
X112572619Y-137138095D01*
X112572619Y-136757142D01*
X113572619Y-136757142D01*
X113572619Y-137090476D01*
X113525000Y-137185714D01*
X113477380Y-137233333D01*
X113382142Y-137280952D01*
X113286904Y-137280952D01*
X113191666Y-137233333D01*
X113144047Y-137185714D01*
X113096428Y-137090476D01*
X113096428Y-136757142D01*
X112572619Y-137757142D02*
X113239285Y-137757142D01*
X113048809Y-137757142D02*
X113144047Y-137804761D01*
X113191666Y-137852380D01*
X113239285Y-137947619D01*
X113239285Y-138042857D01*
X112572619Y-138376190D02*
X113239285Y-138376190D01*
X113572619Y-138376190D02*
X113525000Y-138328571D01*
X113477380Y-138376190D01*
X113525000Y-138423809D01*
X113572619Y-138376190D01*
X113477380Y-138376190D01*
X112572619Y-139280952D02*
X113572619Y-139280952D01*
X112620238Y-139280952D02*
X112572619Y-139185714D01*
X112572619Y-138995238D01*
X112620238Y-138900000D01*
X112667857Y-138852380D01*
X112763095Y-138804761D01*
X113048809Y-138804761D01*
X113144047Y-138852380D01*
X113191666Y-138900000D01*
X113239285Y-138995238D01*
X113239285Y-139185714D01*
X113191666Y-139280952D01*
X113239285Y-140185714D02*
X112429761Y-140185714D01*
X112334523Y-140138095D01*
X112286904Y-140090476D01*
X112239285Y-139995238D01*
X112239285Y-139852380D01*
X112286904Y-139757142D01*
X112620238Y-140185714D02*
X112572619Y-140090476D01*
X112572619Y-139900000D01*
X112620238Y-139804761D01*
X112667857Y-139757142D01*
X112763095Y-139709523D01*
X113048809Y-139709523D01*
X113144047Y-139757142D01*
X113191666Y-139804761D01*
X113239285Y-139900000D01*
X113239285Y-140090476D01*
X113191666Y-140185714D01*
X112620238Y-141042857D02*
X112572619Y-140947619D01*
X112572619Y-140757142D01*
X112620238Y-140661904D01*
X112715476Y-140614285D01*
X113096428Y-140614285D01*
X113191666Y-140661904D01*
X113239285Y-140757142D01*
X113239285Y-140947619D01*
X113191666Y-141042857D01*
X113096428Y-141090476D01*
X113001190Y-141090476D01*
X112905952Y-140614285D01*
X112667857Y-142852380D02*
X112620238Y-142804761D01*
X112572619Y-142661904D01*
X112572619Y-142566666D01*
X112620238Y-142423809D01*
X112715476Y-142328571D01*
X112810714Y-142280952D01*
X113001190Y-142233333D01*
X113144047Y-142233333D01*
X113334523Y-142280952D01*
X113429761Y-142328571D01*
X113525000Y-142423809D01*
X113572619Y-142566666D01*
X113572619Y-142661904D01*
X113525000Y-142804761D01*
X113477380Y-142852380D01*
X112572619Y-143280952D02*
X113572619Y-143280952D01*
X113572619Y-143661904D01*
X113525000Y-143757142D01*
X113477380Y-143804761D01*
X113382142Y-143852380D01*
X113239285Y-143852380D01*
X113144047Y-143804761D01*
X113096428Y-143757142D01*
X113048809Y-143661904D01*
X113048809Y-143280952D01*
X113477380Y-144233333D02*
X113525000Y-144280952D01*
X113572619Y-144376190D01*
X113572619Y-144614285D01*
X113525000Y-144709523D01*
X113477380Y-144757142D01*
X113382142Y-144804761D01*
X113286904Y-144804761D01*
X113144047Y-144757142D01*
X112572619Y-144185714D01*
X112572619Y-144804761D01*
X112572619Y-145757142D02*
X112572619Y-145185714D01*
X112572619Y-145471428D02*
X113572619Y-145471428D01*
X113429761Y-145376190D01*
X113334523Y-145280952D01*
X113286904Y-145185714D01*
X112572619Y-146709523D02*
X112572619Y-146138095D01*
X112572619Y-146423809D02*
X113572619Y-146423809D01*
X113429761Y-146328571D01*
X113334523Y-146233333D01*
X113286904Y-146138095D01*
X113477380Y-147090476D02*
X113525000Y-147138095D01*
X113572619Y-147233333D01*
X113572619Y-147471428D01*
X113525000Y-147566666D01*
X113477380Y-147614285D01*
X113382142Y-147661904D01*
X113286904Y-147661904D01*
X113144047Y-147614285D01*
X112572619Y-147042857D01*
X112572619Y-147661904D01*
X111827380Y-131733333D02*
X111875000Y-131780952D01*
X111922619Y-131876190D01*
X111922619Y-132114285D01*
X111875000Y-132209523D01*
X111827380Y-132257142D01*
X111732142Y-132304761D01*
X111636904Y-132304761D01*
X111494047Y-132257142D01*
X110922619Y-131685714D01*
X110922619Y-132304761D01*
X111922619Y-132923809D02*
X111922619Y-133019047D01*
X111875000Y-133114285D01*
X111827380Y-133161904D01*
X111732142Y-133209523D01*
X111541666Y-133257142D01*
X111303571Y-133257142D01*
X111113095Y-133209523D01*
X111017857Y-133161904D01*
X110970238Y-133114285D01*
X110922619Y-133019047D01*
X110922619Y-132923809D01*
X110970238Y-132828571D01*
X111017857Y-132780952D01*
X111113095Y-132733333D01*
X111303571Y-132685714D01*
X111541666Y-132685714D01*
X111732142Y-132733333D01*
X111827380Y-132780952D01*
X111875000Y-132828571D01*
X111922619Y-132923809D01*
X111922619Y-133876190D02*
X111922619Y-133971428D01*
X111875000Y-134066666D01*
X111827380Y-134114285D01*
X111732142Y-134161904D01*
X111541666Y-134209523D01*
X111303571Y-134209523D01*
X111113095Y-134161904D01*
X111017857Y-134114285D01*
X110970238Y-134066666D01*
X110922619Y-133971428D01*
X110922619Y-133876190D01*
X110970238Y-133780952D01*
X111017857Y-133733333D01*
X111113095Y-133685714D01*
X111303571Y-133638095D01*
X111541666Y-133638095D01*
X111732142Y-133685714D01*
X111827380Y-133733333D01*
X111875000Y-133780952D01*
X111922619Y-133876190D01*
X111922619Y-135114285D02*
X111922619Y-134638095D01*
X111446428Y-134590476D01*
X111494047Y-134638095D01*
X111541666Y-134733333D01*
X111541666Y-134971428D01*
X111494047Y-135066666D01*
X111446428Y-135114285D01*
X111351190Y-135161904D01*
X111113095Y-135161904D01*
X111017857Y-135114285D01*
X110970238Y-135066666D01*
X110922619Y-134971428D01*
X110922619Y-134733333D01*
X110970238Y-134638095D01*
X111017857Y-134590476D01*
X111589285Y-136257142D02*
X110922619Y-136495238D01*
X111589285Y-136733333D01*
X110922619Y-137638095D02*
X110922619Y-137066666D01*
X110922619Y-137352380D02*
X111922619Y-137352380D01*
X111779761Y-137257142D01*
X111684523Y-137161904D01*
X111636904Y-137066666D01*
X111017857Y-138066666D02*
X110970238Y-138114285D01*
X110922619Y-138066666D01*
X110970238Y-138019047D01*
X111017857Y-138066666D01*
X110922619Y-138066666D01*
X111922619Y-138733333D02*
X111922619Y-138828571D01*
X111875000Y-138923809D01*
X111827380Y-138971428D01*
X111732142Y-139019047D01*
X111541666Y-139066666D01*
X111303571Y-139066666D01*
X111113095Y-139019047D01*
X111017857Y-138971428D01*
X110970238Y-138923809D01*
X110922619Y-138828571D01*
X110922619Y-138733333D01*
X110970238Y-138638095D01*
X111017857Y-138590476D01*
X111113095Y-138542857D01*
X111303571Y-138495238D01*
X111541666Y-138495238D01*
X111732142Y-138542857D01*
X111827380Y-138590476D01*
X111875000Y-138638095D01*
X111922619Y-138733333D01*
X111017857Y-140828571D02*
X110970238Y-140780952D01*
X110922619Y-140638095D01*
X110922619Y-140542857D01*
X110970238Y-140400000D01*
X111065476Y-140304761D01*
X111160714Y-140257142D01*
X111351190Y-140209523D01*
X111494047Y-140209523D01*
X111684523Y-140257142D01*
X111779761Y-140304761D01*
X111875000Y-140400000D01*
X111922619Y-140542857D01*
X111922619Y-140638095D01*
X111875000Y-140780952D01*
X111827380Y-140828571D01*
X110922619Y-141257142D02*
X111589285Y-141257142D01*
X111398809Y-141257142D02*
X111494047Y-141304761D01*
X111541666Y-141352380D01*
X111589285Y-141447619D01*
X111589285Y-141542857D01*
X110970238Y-142257142D02*
X110922619Y-142161904D01*
X110922619Y-141971428D01*
X110970238Y-141876190D01*
X111065476Y-141828571D01*
X111446428Y-141828571D01*
X111541666Y-141876190D01*
X111589285Y-141971428D01*
X111589285Y-142161904D01*
X111541666Y-142257142D01*
X111446428Y-142304761D01*
X111351190Y-142304761D01*
X111255952Y-141828571D01*
X110970238Y-142685714D02*
X110922619Y-142780952D01*
X110922619Y-142971428D01*
X110970238Y-143066666D01*
X111065476Y-143114285D01*
X111113095Y-143114285D01*
X111208333Y-143066666D01*
X111255952Y-142971428D01*
X111255952Y-142828571D01*
X111303571Y-142733333D01*
X111398809Y-142685714D01*
X111446428Y-142685714D01*
X111541666Y-142733333D01*
X111589285Y-142828571D01*
X111589285Y-142971428D01*
X111541666Y-143066666D01*
X110970238Y-143971428D02*
X110922619Y-143876190D01*
X110922619Y-143685714D01*
X110970238Y-143590476D01*
X111017857Y-143542857D01*
X111113095Y-143495238D01*
X111398809Y-143495238D01*
X111494047Y-143542857D01*
X111541666Y-143590476D01*
X111589285Y-143685714D01*
X111589285Y-143876190D01*
X111541666Y-143971428D01*
X110970238Y-144780952D02*
X110922619Y-144685714D01*
X110922619Y-144495238D01*
X110970238Y-144400000D01*
X111065476Y-144352380D01*
X111446428Y-144352380D01*
X111541666Y-144400000D01*
X111589285Y-144495238D01*
X111589285Y-144685714D01*
X111541666Y-144780952D01*
X111446428Y-144828571D01*
X111351190Y-144828571D01*
X111255952Y-144352380D01*
X111589285Y-145257142D02*
X110922619Y-145257142D01*
X111494047Y-145257142D02*
X111541666Y-145304761D01*
X111589285Y-145400000D01*
X111589285Y-145542857D01*
X111541666Y-145638095D01*
X111446428Y-145685714D01*
X110922619Y-145685714D01*
X111589285Y-146019047D02*
X111589285Y-146400000D01*
X111922619Y-146161904D02*
X111065476Y-146161904D01*
X110970238Y-146209523D01*
X110922619Y-146304761D01*
X110922619Y-146400000D01*
D10*
X114890000Y-133235000D02*
X114890000Y-133710000D01*
X119110000Y-129490000D02*
X118635000Y-129490000D01*
X119110000Y-129965000D02*
X119110000Y-129490000D01*
X119110000Y-133710000D02*
X118635000Y-133710000D01*
X119110000Y-133235000D02*
X119110000Y-133710000D01*
X114890000Y-129490000D02*
X115365000Y-129490000D01*
X114890000Y-129965000D02*
X114890000Y-129490000D01*
X121270000Y-136942779D02*
X121270000Y-136617221D01*
X120250000Y-136942779D02*
X120250000Y-136617221D01*
X121590000Y-126530779D02*
X121590000Y-126205221D01*
X120570000Y-126530779D02*
X120570000Y-126205221D01*
X119830000Y-126530779D02*
X119830000Y-126205221D01*
X118810000Y-126530779D02*
X118810000Y-126205221D01*
X122770000Y-127020000D02*
X124100000Y-127020000D01*
X122770000Y-128350000D02*
X122770000Y-127020000D01*
X125370000Y-127020000D02*
X127970000Y-127020000D01*
X125370000Y-129620000D02*
X125370000Y-127020000D01*
X122770000Y-129620000D02*
X125370000Y-129620000D01*
X127970000Y-127020000D02*
X127970000Y-139840000D01*
X122770000Y-129620000D02*
X122770000Y-139840000D01*
X122770000Y-139840000D02*
X127970000Y-139840000D01*
X115550578Y-126250000D02*
X115033422Y-126250000D01*
X115550578Y-127670000D02*
X115033422Y-127670000D01*
X115050000Y-136701422D02*
X115050000Y-137218578D01*
X116470000Y-136701422D02*
X116470000Y-137218578D01*
X121580000Y-142980000D02*
X121580000Y-140530000D01*
X118360000Y-141180000D02*
X118360000Y-142980000D01*
D11*
X118350000Y-144200000D02*
X119100000Y-144200000D01*
D12*
X115600000Y-149700000D02*
X115600000Y-145200000D01*
X115600000Y-145200000D02*
X115600000Y-144700000D01*
X115600000Y-144700000D02*
X124600000Y-144700000D01*
X124600000Y-144700000D02*
X124600000Y-149700000D01*
D10*
X128020000Y-120800000D02*
X128020000Y-122130000D01*
X126690000Y-120800000D02*
X128020000Y-120800000D01*
X125420000Y-120800000D02*
X125420000Y-123460000D01*
X125420000Y-123460000D02*
X112660000Y-123460000D01*
X125420000Y-120800000D02*
X112660000Y-120800000D01*
X112660000Y-120800000D02*
X112660000Y-123460000D01*
X117430000Y-142592779D02*
X117430000Y-142267221D01*
X116410000Y-142592779D02*
X116410000Y-142267221D01*
X118710000Y-136609221D02*
X118710000Y-136934779D01*
X119730000Y-136609221D02*
X119730000Y-136934779D01*
X117090000Y-136605221D02*
X117090000Y-136930779D01*
X118110000Y-136605221D02*
X118110000Y-136930779D01*
D11*
X113072380Y-130231904D02*
X113881904Y-130231904D01*
X113977142Y-130184285D01*
X114024761Y-130136666D01*
X114072380Y-130041428D01*
X114072380Y-129850952D01*
X114024761Y-129755714D01*
X113977142Y-129708095D01*
X113881904Y-129660476D01*
X113072380Y-129660476D01*
X113167619Y-129231904D02*
X113120000Y-129184285D01*
X113072380Y-129089047D01*
X113072380Y-128850952D01*
X113120000Y-128755714D01*
X113167619Y-128708095D01*
X113262857Y-128660476D01*
X113358095Y-128660476D01*
X113500952Y-128708095D01*
X114072380Y-129279523D01*
X114072380Y-128660476D01*
X121272380Y-139316666D02*
X120796190Y-139650000D01*
X121272380Y-139888095D02*
X120272380Y-139888095D01*
X120272380Y-139507142D01*
X120320000Y-139411904D01*
X120367619Y-139364285D01*
X120462857Y-139316666D01*
X120605714Y-139316666D01*
X120700952Y-139364285D01*
X120748571Y-139411904D01*
X120796190Y-139507142D01*
X120796190Y-139888095D01*
X120272380Y-138983333D02*
X120272380Y-138364285D01*
X120653333Y-138697619D01*
X120653333Y-138554761D01*
X120700952Y-138459523D01*
X120748571Y-138411904D01*
X120843809Y-138364285D01*
X121081904Y-138364285D01*
X121177142Y-138411904D01*
X121224761Y-138459523D01*
X121272380Y-138554761D01*
X121272380Y-138840476D01*
X121224761Y-138935714D01*
X121177142Y-138983333D01*
X123052380Y-125767166D02*
X122576190Y-126100500D01*
X123052380Y-126338595D02*
X122052380Y-126338595D01*
X122052380Y-125957642D01*
X122100000Y-125862404D01*
X122147619Y-125814785D01*
X122242857Y-125767166D01*
X122385714Y-125767166D01*
X122480952Y-125814785D01*
X122528571Y-125862404D01*
X122576190Y-125957642D01*
X122576190Y-126338595D01*
X122147619Y-125386214D02*
X122100000Y-125338595D01*
X122052380Y-125243357D01*
X122052380Y-125005261D01*
X122100000Y-124910023D01*
X122147619Y-124862404D01*
X122242857Y-124814785D01*
X122338095Y-124814785D01*
X122480952Y-124862404D01*
X123052380Y-125433833D01*
X123052380Y-124814785D01*
X118352380Y-126467166D02*
X117876190Y-126800500D01*
X118352380Y-127038595D02*
X117352380Y-127038595D01*
X117352380Y-126657642D01*
X117400000Y-126562404D01*
X117447619Y-126514785D01*
X117542857Y-126467166D01*
X117685714Y-126467166D01*
X117780952Y-126514785D01*
X117828571Y-126562404D01*
X117876190Y-126657642D01*
X117876190Y-127038595D01*
X118352380Y-125514785D02*
X118352380Y-126086214D01*
X118352380Y-125800500D02*
X117352380Y-125800500D01*
X117495238Y-125895738D01*
X117590476Y-125990976D01*
X117638095Y-126086214D01*
X125036666Y-125472380D02*
X125036666Y-126186666D01*
X124989047Y-126329523D01*
X124893809Y-126424761D01*
X124750952Y-126472380D01*
X124655714Y-126472380D01*
X125417619Y-125472380D02*
X126036666Y-125472380D01*
X125703333Y-125853333D01*
X125846190Y-125853333D01*
X125941428Y-125900952D01*
X125989047Y-125948571D01*
X126036666Y-126043809D01*
X126036666Y-126281904D01*
X125989047Y-126377142D01*
X125941428Y-126424761D01*
X125846190Y-126472380D01*
X125560476Y-126472380D01*
X125465238Y-126424761D01*
X125417619Y-126377142D01*
X112542833Y-127297142D02*
X112495214Y-127344761D01*
X112352357Y-127392380D01*
X112257119Y-127392380D01*
X112114261Y-127344761D01*
X112019023Y-127249523D01*
X111971404Y-127154285D01*
X111923785Y-126963809D01*
X111923785Y-126820952D01*
X111971404Y-126630476D01*
X112019023Y-126535238D01*
X112114261Y-126440000D01*
X112257119Y-126392380D01*
X112352357Y-126392380D01*
X112495214Y-126440000D01*
X112542833Y-126487619D01*
X112923785Y-126487619D02*
X112971404Y-126440000D01*
X113066642Y-126392380D01*
X113304738Y-126392380D01*
X113399976Y-126440000D01*
X113447595Y-126487619D01*
X113495214Y-126582857D01*
X113495214Y-126678095D01*
X113447595Y-126820952D01*
X112876166Y-127392380D01*
X113495214Y-127392380D01*
X116137142Y-139886666D02*
X116184761Y-139934285D01*
X116232380Y-140077142D01*
X116232380Y-140172380D01*
X116184761Y-140315238D01*
X116089523Y-140410476D01*
X115994285Y-140458095D01*
X115803809Y-140505714D01*
X115660952Y-140505714D01*
X115470476Y-140458095D01*
X115375238Y-140410476D01*
X115280000Y-140315238D01*
X115232380Y-140172380D01*
X115232380Y-140077142D01*
X115280000Y-139934285D01*
X115327619Y-139886666D01*
X115232380Y-139553333D02*
X115232380Y-138934285D01*
X115613333Y-139267619D01*
X115613333Y-139124761D01*
X115660952Y-139029523D01*
X115708571Y-138981904D01*
X115803809Y-138934285D01*
X116041904Y-138934285D01*
X116137142Y-138981904D01*
X116184761Y-139029523D01*
X116232380Y-139124761D01*
X116232380Y-139410476D01*
X116184761Y-139505714D01*
X116137142Y-139553333D01*
X122322380Y-142841904D02*
X123131904Y-142841904D01*
X123227142Y-142794285D01*
X123274761Y-142746666D01*
X123322380Y-142651428D01*
X123322380Y-142460952D01*
X123274761Y-142365714D01*
X123227142Y-142318095D01*
X123131904Y-142270476D01*
X122322380Y-142270476D01*
X123322380Y-141270476D02*
X123322380Y-141841904D01*
X123322380Y-141556190D02*
X122322380Y-141556190D01*
X122465238Y-141651428D01*
X122560476Y-141746666D01*
X122608095Y-141841904D01*
X119833333Y-148261904D02*
X119833333Y-148833333D01*
X119795238Y-148947619D01*
X119719047Y-149023809D01*
X119604761Y-149061904D01*
X119528571Y-149061904D01*
X120176190Y-148338095D02*
X120214285Y-148300000D01*
X120290476Y-148261904D01*
X120480952Y-148261904D01*
X120557142Y-148300000D01*
X120595238Y-148338095D01*
X120633333Y-148414285D01*
X120633333Y-148490476D01*
X120595238Y-148604761D01*
X120138095Y-149061904D01*
X120633333Y-149061904D01*
X128472380Y-122463333D02*
X129186666Y-122463333D01*
X129329523Y-122510952D01*
X129424761Y-122606190D01*
X129472380Y-122749047D01*
X129472380Y-122844285D01*
X129472380Y-121463333D02*
X129472380Y-122034761D01*
X129472380Y-121749047D02*
X128472380Y-121749047D01*
X128615238Y-121844285D01*
X128710476Y-121939523D01*
X128758095Y-122034761D01*
X115478571Y-142593333D02*
X115478571Y-142926666D01*
X116002380Y-142926666D02*
X115002380Y-142926666D01*
X115002380Y-142450476D01*
X116002380Y-141545714D02*
X116002380Y-142117142D01*
X116002380Y-141831428D02*
X115002380Y-141831428D01*
X115145238Y-141926666D01*
X115240476Y-142021904D01*
X115288095Y-142117142D01*
X119577142Y-139451166D02*
X119624761Y-139498785D01*
X119672380Y-139641642D01*
X119672380Y-139736880D01*
X119624761Y-139879738D01*
X119529523Y-139974976D01*
X119434285Y-140022595D01*
X119243809Y-140070214D01*
X119100952Y-140070214D01*
X118910476Y-140022595D01*
X118815238Y-139974976D01*
X118720000Y-139879738D01*
X118672380Y-139736880D01*
X118672380Y-139641642D01*
X118720000Y-139498785D01*
X118767619Y-139451166D01*
X119005714Y-138594023D02*
X119672380Y-138594023D01*
X118624761Y-138832119D02*
X119339047Y-139070214D01*
X119339047Y-138451166D01*
X117957142Y-139334666D02*
X118004761Y-139382285D01*
X118052380Y-139525142D01*
X118052380Y-139620380D01*
X118004761Y-139763238D01*
X117909523Y-139858476D01*
X117814285Y-139906095D01*
X117623809Y-139953714D01*
X117480952Y-139953714D01*
X117290476Y-139906095D01*
X117195238Y-139858476D01*
X117100000Y-139763238D01*
X117052380Y-139620380D01*
X117052380Y-139525142D01*
X117100000Y-139382285D01*
X117147619Y-139334666D01*
X118052380Y-138382285D02*
X118052380Y-138953714D01*
X118052380Y-138668000D02*
X117052380Y-138668000D01*
X117195238Y-138763238D01*
X117290476Y-138858476D01*
X117338095Y-138953714D01*
M02*
