M48
; DRILL file {KiCad (5.1.2)-1} date 2020/05/23 15:23:27
; FORMAT={-:-/ absolute / metric / decimal}
; #@! TF.CreationDate,2020-05-23T15:23:27+09:00
; #@! TF.GenerationSoftware,Kicad,Pcbnew,(5.1.2)-1
FMAT,2
METRIC
T1C0.400
T2C0.500
T3C0.550
T4C1.000
%
G90
G05
T1
X111.6Y-123.9
X112.3Y-144.4
X114.055Y-128.375
X114.611Y-125.525
X114.977Y-139.333
X115.002Y-133.645
X115.023Y-129.536
X115.369Y-124.225
X115.709Y-128.616
X117.25Y-134.938
X117.404Y-139.627
X117.942Y-140.523
X118.941Y-134.943
X120.048Y-144.517
X121.726Y-139.213
X122.389Y-134.911
X125.9Y-144.0
T4
X113.99Y-122.13
X116.53Y-122.13
X119.07Y-122.13
X121.61Y-122.13
X124.15Y-122.13
X126.69Y-122.13
X124.1Y-128.35
X124.1Y-130.89
X124.1Y-133.43
X124.1Y-135.97
X124.1Y-138.51
X126.64Y-128.35
X126.64Y-130.89
X126.64Y-133.43
X126.64Y-135.97
X126.64Y-138.51
T2
G00X116.6Y-148.375
M15
G01X116.6Y-149.025
M16
G05
G00X123.6Y-148.375
M15
G01X123.6Y-149.025
M16
G05
T3
G00X117.45Y-146.0
M15
G01X117.75Y-146.0
M16
G05
G00X122.45Y-146.0
M15
G01X122.75Y-146.0
M16
G05
T0
M30
